<?xml version="1.0" encoding="UTF-8" standalone="no"?>
<svg
   width="200"
   height="200"
   viewBox="0 0 200 200"
   version="1.1"
   xml:space="preserve"
   style="fill-rule:evenodd;clip-rule:evenodd;stroke-linejoin:round;stroke-miterlimit:2;"
   id="svg52"
   sodipodi:docname="ego.svg"
   inkscape:version="1.1.2 (b8e25be833, 2022-02-05)"
   xmlns:inkscape="http://www.inkscape.org/namespaces/inkscape"
   xmlns:sodipodi="http://sodipodi.sourceforge.net/DTD/sodipodi-0.dtd"
   xmlns="http://www.w3.org/2000/svg"
   xmlns:svg="http://www.w3.org/2000/svg"><defs
   id="defs56">
        
        
        
        
        
    </defs><sodipodi:namedview
   id="namedview54"
   pagecolor="#ffffff"
   bordercolor="#666666"
   borderopacity="1.0"
   inkscape:pageshadow="2"
   inkscape:pageopacity="0.0"
   inkscape:pagecheckerboard="0"
   showgrid="false"
   inkscape:zoom="1.5432606"
   inkscape:cx="76.1375"
   inkscape:cy="231.97638"
   inkscape:window-width="2560"
   inkscape:window-height="1377"
   inkscape:window-x="-8"
   inkscape:window-y="-8"
   inkscape:window-maximized="1"
   inkscape:current-layer="svg52" />
    <path
   id="rect5322"
   d="M 200,7.5 C 200,3.36 196.64,0 192.5,0 H 7.5 C 3.36,0 0,3.36 0,7.5 v 185 c 0,4.14 3.36,7.5 7.5,7.5 h 185 c 4.14,0 7.5,-3.36 7.5,-7.5 z"
   style="fill:#222222;stroke-width:2" /><path
   id="rect5324"
   d="m 190,15 c 0,-2.76 -2.24,-5 -5,-5 H 15 c -2.76,0 -5,2.24 -5,5 v 170 c 0,2.76 2.24,5 5,5 h 170 c 2.76,0 5,-2.24 5,-5 z"
   style="fill:#009957;stroke-width:2" /><path
   id="path5326"
   d="m 5.5,140 v 50 c 0,11.634 9.366,2.5 21,2.5 h 147 c 11.634,0 21,9.134 21,-2.5 v -50 z"
   style="fill:#222222;fill-rule:nonzero;stroke-width:2" />
<text
   xml:space="preserve"
   style="font-style:normal;font-weight:normal;font-size:40px;line-height:1.25;font-family:sans-serif;fill:#ffffff;fill-opacity:1;stroke:none"
   x="61.39748"
   y="177.31958"
   id="text1465"><tspan
     sodipodi:role="line"
     id="tspan1463"
     x="61.39748"
     y="177.31958">Ego</tspan></text><g
   id="g2744"
   transform="translate(-23.327234,-355.74032)"><path
     d="m 139.02278,418.08913 c 0,1.10895 -0.89829,2.00814 -2.00813,2.00814 -1.10895,0 -2.00813,-0.89919 -2.00813,-2.00814 0,-1.10894 0.89918,-2.00813 2.00813,-2.00813 1.10984,0 2.00813,0.89919 2.00813,2.00813"
     id="path58"
     style="stroke-width:0.229501" /><path
     d="m 155.03965,416.081 c 0,-16.06506 -12.61268,-28.11386 -28.11386,-28.11386 -15.50485,0 -28.113861,12.61268 -28.113861,28.11386 h -0.0018 c 0,11.0025 6.022571,16.96241 8.030701,18.87829 v 19.27624 h 4.01626 v -21.32018 l -0.88394,-0.59617 c -0.0699,-0.0484 -7.14505,-4.94781 -7.14505,-16.23536 0,-13.28764 10.80995,-24.09759 24.09759,-24.09759 13.28764,0 24.0976,10.80995 24.0976,24.09759 l -0.004,-9.1e-4 V 428.1317 H 140.979 v 10.04067 c 0,0.90187 -1.10447,2.00813 -2.00455,2.00813 h -14.05693 c -1.10805,0 -2.00813,0.8974 -2.00813,2.00813 0,1.11074 0.90008,2.00814 2.00813,2.00814 h 0.004 4.00915 v 10.04066 h 4.01627 v -10.04066 h 6.02807 c 3.09734,-0.002 6.02072,-2.92981 6.02072,-6.02624 v -6.0244 h 10.04067 v -16.06506 z"
     id="path60"
     style="stroke-width:0.229501" /><path
     d="m 169.09199,424.11353 0.004,14.05693 h -14.0606 v 22.08947 c 0,1.80105 -2.21074,4.01626 -4.0126,4.01626 h -22.08946 c -2.21702,0 -4.01626,1.79924 -4.01626,4.01627 0,2.21702 1.79924,4.01626 4.01626,4.01626 h 6.02073 v 14.05693 h 8.03253 v -14.05693 h 8.0362 c 6.19377,0 12.04513,-5.85594 12.04513,-12.04879 v -14.05694 h 14.0606 l -0.004,-22.08946 c 0,-27.6824 -22.52161,-50.20332 -50.20332,-50.20332 -27.681711,0 -50.203323,22.52161 -50.203323,50.20332 0,12.03457 4.72726,22.74033 14.05693,31.83407 l 0.0036,30.41805 h 8.032532 l -0.0036,-33.79401 -1.177087,-1.1744 c -0.166747,-0.16674 -0.391758,-0.38191 -0.668789,-0.64278 -3.020232,-2.85362 -12.211054,-11.53518 -12.211054,-26.64047 0,-23.25303 18.918681,-42.17079 42.170791,-42.17079 23.25211,0 42.17079,18.91684 42.17079,42.17079"
     id="path62"
     style="stroke-width:0.229501" /></g><g
   id="g2788"
   transform="translate(-34.990851,-262.43138)"><g
     id="use64"
     transform="matrix(0.2295009,0,0,0.2295009,62.660947,524.52018)"><path
       d="m 29.312,-1.75 c -1.5117,0.78125 -3.0898,1.3711 -4.7344,1.7656 -1.6367,0.40625 -3.3398,0.60938 -5.1094,0.60938 -5.3125,0 -9.5273,-1.4844 -12.641,-4.4531 -3.1055,-2.9688 -4.6562,-7 -4.6562,-12.094 0,-5.094 1.5508,-9.125 4.6562,-12.094 3.1133,-2.9688 7.3281,-4.4531 12.641,-4.4531 1.7695,0 3.4727,0.19922 5.1094,0.59375 1.6445,0.39844 3.2227,0.99219 4.7344,1.7812 v 6.5938 c -1.5312,-1.0391 -3.0391,-1.8008 -4.5156,-2.2812 -1.4805,-0.48828 -3.0391,-0.73438 -4.6719,-0.73438 -2.9375,0 -5.2461,0.94531 -6.9219,2.8281 -1.6797,1.875 -2.5156,4.4648 -2.5156,7.7656 0,3.293 0.83594,5.8828 2.5156,7.7656 1.6758,1.875 3.9844,2.8125 6.9219,2.8125 1.6328,0 3.1914,-0.23828 4.6719,-0.71875 1.4766,-0.48828 2.9844,-1.2539 4.5156,-2.2969 z"
       id="path2566" /></g><g
     id="use66"
     transform="matrix(0.2295009,0,0,0.2295009,70.030079,524.52018)"><path
       d="m 21.453,-17.406 c -0.67969,-0.3125 -1.3516,-0.53906 -2.0156,-0.6875 -0.65625,-0.15625 -1.3203,-0.23438 -1.9844,-0.23438 -1.9688,0 -3.4844,0.63281 -4.5469,1.8906 -1.0547,1.2617 -1.5781,3.0703 -1.5781,5.4219 V 6.2e-4 H 3.6718 v -23.922 h 7.6562 v 3.9219 c 0.97656,-1.5625 2.1016,-2.7031 3.375,-3.4219 1.2812,-0.71875 2.8125,-1.0781 4.5938,-1.0781 0.25,0 0.52344,0.01172 0.82812,0.03125 0.30078,0.02344 0.73438,0.07031 1.2969,0.14062 z"
       id="path2562" /></g><g
     id="use68"
     transform="matrix(0.2295009,0,0,0.2295009,74.981379,524.52018)"><path
       d="m 27.562,-12.031 v 2.1875 H 9.671 c 0.1875,1.793 0.83203,3.1367 1.9375,4.0312 1.1133,0.89844 2.6719,1.3438 4.6719,1.3438 1.6016,0 3.25,-0.23438 4.9375,-0.70312 1.6875,-0.47656 3.4219,-1.2031 5.2031,-2.1719 v 5.8906 c -1.8047,0.6875 -3.6094,1.2031 -5.4219,1.5469 -1.8125,0.35156 -3.6211,0.53125 -5.4219,0.53125 -4.3359,0 -7.7031,-1.0977 -10.109,-3.2969 -2.3984,-2.207 -3.5938,-5.2969 -3.5938,-9.2656 0,-3.9062 1.1758,-6.9727 3.5312,-9.2031 2.3633,-2.2383 5.6094,-3.3594 9.7344,-3.3594 3.7578,0 6.7695,1.1367 9.0312,3.4062 2.2578,2.2617 3.3906,5.2812 3.3906,9.0625 z m -7.8594,-2.5312 c 0,-1.457 -0.42969,-2.6289 -1.2812,-3.5156 -0.84375,-0.89453 -1.9492,-1.3438 -3.3125,-1.3438 -1.4922,0 -2.6992,0.41797 -3.625,1.25 -0.91797,0.83594 -1.4922,2.0391 -1.7188,3.6094 z"
       id="path2550" /></g><g
     id="use70"
     transform="matrix(0.2295009,0,0,0.2295009,81.791102,524.52018)"><path
       d="m 14.391,-10.766 c -1.5938,0 -2.793,0.27344 -3.5938,0.8125 -0.80469,0.54297 -1.2031,1.3398 -1.2031,2.3906 0,0.96875 0.32031,1.7305 0.96875,2.2812 0.64453,0.54297 1.5469,0.8125 2.7031,0.8125 1.4375,0 2.6445,-0.51562 3.625,-1.5469 0.98828,-1.0312 1.4844,-2.3203 1.4844,-3.875 v -0.875 z m 11.688,-2.8906 V -6e-4 h -7.7031 v -3.5469 c -1.0312,1.4492 -2.1875,2.5078 -3.4688,3.1719 -1.2813,0.6641 -2.8398,1 -4.6719,1 -2.4805,0 -4.4961,-0.72266 -6.0469,-2.1719 -1.543,-1.4453 -2.3125,-3.3203 -2.3125,-5.625 0,-2.8125 0.96094,-4.8672 2.8906,-6.1719 1.9375,-1.3125 4.9688,-1.9688 9.0938,-1.9688 h 4.5156 v -0.60938 c 0,-1.207 -0.48047,-2.0938 -1.4375,-2.6562 -0.94922,-0.5625 -2.4375,-0.84375 -4.4688,-0.84375 -1.6367,0 -3.1562,0.16797 -4.5625,0.5 -1.4062,0.32422 -2.7188,0.8125 -3.9375,1.4688 v -5.8281 c 1.6445,-0.40625 3.2891,-0.70703 4.9375,-0.90625 1.6562,-0.20703 3.3047,-0.3125 4.9531,-0.3125 4.3203,0 7.4375,0.85547 9.3438,2.5625 1.9141,1.6992 2.875,4.4609 2.875,8.2812 z"
       id="path2542" /></g><g
     id="use72"
     transform="matrix(0.2295009,0,0,0.2295009,88.566758,524.52018)"><path
       d="m 12.031,-30.719 v 6.7969 h 7.875 v 5.4688 h -7.875 v 10.141 c 0,1.1172 0.21875,1.8711 0.65625,2.2656 0.4375,0.38672 1.3125,0.57812 2.625,0.57812 h 3.9375 v 5.4688 h -6.5625 c -3.0234,0 -5.1641,-0.62891 -6.4219,-1.8906 -1.2617,-1.2578 -1.8906,-3.3984 -1.8906,-6.4219 v -10.141 h -3.7969 v -5.4688 h 3.7969 v -6.7969 z"
       id="path2534" /></g><g
     id="use74"
     transform="matrix(0.2295009,0,0,0.2295009,93.366554,524.52018)"><path
       d="m 27.562,-12.031 v 2.1875 H 9.671 c 0.1875,1.793 0.83203,3.1367 1.9375,4.0312 1.1133,0.89844 2.6719,1.3438 4.6719,1.3438 1.6016,0 3.25,-0.23438 4.9375,-0.70312 1.6875,-0.47656 3.4219,-1.2031 5.2031,-2.1719 v 5.8906 c -1.8047,0.6875 -3.6094,1.2031 -5.4219,1.5469 -1.8125,0.35156 -3.6211,0.53125 -5.4219,0.53125 -4.3359,0 -7.7031,-1.0977 -10.109,-3.2969 -2.3984,-2.207 -3.5938,-5.2969 -3.5938,-9.2656 0,-3.9062 1.1758,-6.9727 3.5312,-9.2031 2.3633,-2.2383 5.6094,-3.3594 9.7344,-3.3594 3.7578,0 6.7695,1.1367 9.0312,3.4062 2.2578,2.2617 3.3906,5.2812 3.3906,9.0625 z m -7.8594,-2.5312 c 0,-1.457 -0.42969,-2.6289 -1.2812,-3.5156 -0.84375,-0.89453 -1.9492,-1.3438 -3.3125,-1.3438 -1.4922,0 -2.6992,0.41797 -3.625,1.25 -0.91797,0.83594 -1.4922,2.0391 -1.7188,3.6094 z"
       id="path2554" /></g><g
     id="use76"
     transform="matrix(0.2295009,0,0,0.2295009,100.17627,524.52018)"><path
       d="m 19.953,-20.422 v -12.812 h 7.6875 V 0 H 19.953 v -3.4531 c -1.0547,1.4062 -2.2148,2.4375 -3.4844,3.0938 -1.2734,0.65625 -2.7422,0.98438 -4.4062,0.98438 -2.9492,0 -5.3711,-1.1719 -7.2656,-3.5156 -1.8867,-2.3438 -2.8281,-5.3594 -2.8281,-9.0469 0,-3.6875 0.94141,-6.7031 2.8281,-9.0469 1.8945,-2.3438 4.3164,-3.5156 7.2656,-3.5156 1.6562,0 3.1172,0.33594 4.3906,1 1.2812,0.65625 2.4453,1.6836 3.5,3.0781 z m -5.0469,15.484 c 1.6445,0 2.8945,-0.59766 3.75,-1.7969 0.86328,-1.1953 1.2969,-2.9297 1.2969,-5.2031 0,-2.2812 -0.43359,-4.0195 -1.2969,-5.2188 -0.85547,-1.1953 -2.1055,-1.7969 -3.75,-1.7969 -1.625,0 -2.8711,0.60156 -3.7344,1.7969 -0.85547,1.1992 -1.2812,2.9375 -1.2812,5.2188 0,2.2734 0.42578,4.0078 1.2812,5.2031 0.86328,1.1992 2.1094,1.7969 3.7344,1.7969 z"
       id="path2538" /></g><g
     id="use78"
     transform="matrix(0.2295009,0,0,0.2295009,110.85883,524.52018)"><path
       d="m 16.406,-4.9375 c 1.6328,0 2.8828,-0.59766 3.75,-1.7969 0.86328,-1.1953 1.2969,-2.9297 1.2969,-5.2031 0,-2.2812 -0.43359,-4.0195 -1.2969,-5.2188 -0.86719,-1.1953 -2.1172,-1.7969 -3.75,-1.7969 -1.6367,0 -2.8906,0.60547 -3.7656,1.8125 -0.875,1.1992 -1.3125,2.9336 -1.3125,5.2031 0,2.2617 0.4375,3.9961 1.3125,5.2031 0.875,1.1992 2.1289,1.7969 3.7656,1.7969 z m -5.0781,-15.484 c 1.0508,-1.3945 2.2188,-2.4219 3.5,-3.0781 1.2812,-0.66406 2.7539,-1 4.4219,-1 2.9453,0 5.3672,1.1719 7.2656,3.5156 1.8945,2.3438 2.8438,5.3594 2.8438,9.0469 0,3.6875 -0.94922,6.7031 -2.8438,9.0469 -1.8984,2.3438 -4.3203,3.5156 -7.2656,3.5156 -1.668,0 -3.1406,-0.33594 -4.4219,-1 -1.2813,-0.66406 -2.4492,-1.6914 -3.5,-3.0781 V 4e-4 H 3.6717 v -33.234 h 7.6562 z"
       id="path2546" /></g><g
     id="use80"
     transform="matrix(0.2295009,0,0,0.2295009,118.04597,524.52018)"><path
       d="m 0.53125,-23.922 h 7.6562 l 6.4219,16.234 5.4688,-16.234 h 7.6562 l -10.062,26.188 c -1.0117,2.6641 -2.1953,4.5234 -3.5469,5.5781 -1.3438,1.0625 -3.1211,1.5938 -5.3281,1.5938 H 4.37545 V 4.4223 h 2.3906 c 1.3008,0 2.2422,-0.21094 2.8281,-0.625 0.59375,-0.40625 1.0547,-1.1484 1.3906,-2.2188 l 0.20312,-0.65625 z"
       id="path2530" /></g><g
     id="use82"
     transform="matrix(0.2295009,0,0,0.2295009,128.08663,524.52018)"><path
       d="M 23.375,-5.8125 H 10.516 L 8.4848,0 H 0.2192 l 11.812,-31.891 h 9.7969 L 33.6401,0 h -8.2656 z m -10.812,-5.9219 h 8.7344 l -4.3594,-12.688 z"
       id="path2518" /></g><g
     id="use84"
     transform="matrix(0.2295009,0,0,0.2295009,135.85739,524.52018)"><path
       d="m 3.6719,-33.234 h 7.6562 V 0 H 3.6719 Z"
       id="path2486" /></g><g
     id="use86"
     transform="matrix(0.2295009,0,0,0.2295009,139.2999,524.52018)"><path
       d="m 19.422,-33.234 v 5.0156 h -4.2344 c -1.0859,0 -1.8398,0.19922 -2.2656,0.59375 -0.42969,0.38672 -0.64062,1.0625 -0.64062,2.0312 v 1.6719 h 6.5312 v 5.4688 h -6.5312 v 18.453 h -7.6406 v -18.453 h -3.8125 v -5.4688 h 3.8125 v -1.6719 c 0,-2.6016 0.72266,-4.5234 2.1719,-5.7656 1.457,-1.25 3.707,-1.875 6.75,-1.875 z"
       id="path2526" /></g><g
     id="use88"
     transform="matrix(0.2295009,0,0,0.2295009,143.66759,524.52018)"><path
       d="m 15.062,-19.031 c -1.6992,0 -2.9961,0.60938 -3.8906,1.8281 -0.88672,1.2188 -1.3281,2.9766 -1.3281,5.2656 0,2.293 0.44141,4.0469 1.3281,5.2656 0.89453,1.2188 2.1914,1.8281 3.8906,1.8281 1.6641,0 2.9375,-0.60938 3.8125,-1.8281 0.88281,-1.2188 1.3281,-2.9727 1.3281,-5.2656 0,-2.2891 -0.44531,-4.0469 -1.3281,-5.2656 -0.875,-1.2188 -2.1484,-1.8281 -3.8125,-1.8281 z m 0,-5.4688 c 4.1133,0 7.3281,1.1094 9.6406,3.3281 2.3125,2.2187 3.4688,5.2969 3.4688,9.2344 0,3.9297 -1.1562,7.0078 -3.4688,9.2344 -2.3125,2.2188 -5.5273,3.3281 -9.6406,3.3281 -4.1367,0 -7.3711,-1.1094 -9.7031,-3.3281 -2.3242,-2.2266 -3.4844,-5.3047 -3.4844,-9.2344 0,-3.9375 1.1602,-7.0156 3.4844,-9.2344 2.332,-2.2188 5.5664,-3.3281 9.7031,-3.3281 z"
       id="path2510" /></g><g
     id="use90"
     transform="matrix(0.2295009,0,0,0.2295009,150.56607,524.52018)"><path
       d="M 27.734,-14.562 V 0 h -7.7031 v -11.156 c 0,-2.0625 -0.04687,-3.4844 -0.14062,-4.2656 -0.08594,-0.78125 -0.24219,-1.3594 -0.46875,-1.7344 -0.30469,-0.5 -0.71094,-0.88281 -1.2188,-1.1562 -0.51172,-0.28125 -1.0938,-0.42188 -1.75,-0.42188 -1.5938,0 -2.8516,0.61719 -3.7656,1.8438 -0.90625,1.2305 -1.3594,2.9375 -1.3594,5.125 v 11.766 h -7.6562 v -23.922 h 7.6562 v 3.5 c 1.1445,-1.3945 2.3633,-2.4219 3.6562,-3.0781 1.3008,-0.66406 2.7383,-1 4.3125,-1 2.7578,0 4.8516,0.85156 6.2812,2.5469 1.4375,1.6875 2.1562,4.1523 2.1562,7.3906 z"
       id="path2506" /></g><g
     id="use92"
     transform="matrix(0.2295009,0,0,0.2295009,157.71376,524.52018)"><path
       d="m 22.359,-23.172 v 5.7969 c -1.6367,-0.67578 -3.2148,-1.1875 -4.7344,-1.5312 -1.5234,-0.34375 -2.9609,-0.51562 -4.3125,-0.51562 -1.4609,0 -2.543,0.18359 -3.25,0.54688 -0.69922,0.36719 -1.0469,0.92188 -1.0469,1.6719 0,0.61719 0.26562,1.0898 0.79688,1.4219 0.53125,0.32422 1.4883,0.5625 2.875,0.71875 l 1.3438,0.1875 c 3.9141,0.5 6.5508,1.3242 7.9062,2.4688 1.3516,1.1367 2.0312,2.9219 2.0312,5.3594 0,2.5547 -0.94531,4.4688 -2.8281,5.75 -1.875,1.2812 -4.6797,1.9219 -8.4062,1.9219 -1.5859,0 -3.2188,-0.125 -4.9062,-0.375 -1.6874,-0.25 -3.4219,-0.625 -5.2031,-1.125 v -5.8125 c 1.5195,0.74219 3.082,1.2969 4.6875,1.6719 1.6016,0.36719 3.2344,0.54688 4.8906,0.54688 1.4883,0 2.6094,-0.20312 3.3594,-0.60938 0.75781,-0.41406 1.1406,-1.0312 1.1406,-1.8438 0,-0.6875 -0.26172,-1.1953 -0.78125,-1.5312 -0.52344,-0.33203 -1.5586,-0.59375 -3.1094,-0.78125 l -1.3438,-0.17188 c -3.4062,-0.42578 -5.793,-1.2109 -7.1562,-2.3594 -1.3672,-1.1562 -2.0469,-2.9102 -2.0469,-5.2656 0,-2.5312 0.86719,-4.4062 2.6094,-5.625 1.7383,-1.2266 4.3984,-1.8438 7.9844,-1.8438 1.4062,0 2.8828,0.10938 4.4375,0.32812 1.5508,0.21094 3.2383,0.54297 5.0625,1 z"
       id="path2490" /></g><g
     id="use94"
     transform="matrix(0.2295009,0,0,0.2295009,163.69065,524.52018)"><path
       d="m 15.062,-19.031 c -1.6992,0 -2.9961,0.60938 -3.8906,1.8281 -0.88672,1.2188 -1.3281,2.9766 -1.3281,5.2656 0,2.293 0.44141,4.0469 1.3281,5.2656 0.89453,1.2188 2.1914,1.8281 3.8906,1.8281 1.6641,0 2.9375,-0.60938 3.8125,-1.8281 0.88281,-1.2188 1.3281,-2.9727 1.3281,-5.2656 0,-2.2891 -0.44531,-4.0469 -1.3281,-5.2656 -0.875,-1.2188 -2.1484,-1.8281 -3.8125,-1.8281 z m 0,-5.4688 c 4.1133,0 7.3281,1.1094 9.6406,3.3281 2.3125,2.2187 3.4688,5.2969 3.4688,9.2344 0,3.9297 -1.1562,7.0078 -3.4688,9.2344 -2.3125,2.2188 -5.5273,3.3281 -9.6406,3.3281 -4.1367,0 -7.3711,-1.1094 -9.7031,-3.3281 -2.3242,-2.2266 -3.4844,-5.3047 -3.4844,-9.2344 0,-3.9375 1.1602,-7.0156 3.4844,-9.2344 2.332,-2.2188 5.5664,-3.3281 9.7031,-3.3281 z"
       id="path2514" /></g><g
     id="use96"
     transform="matrix(0.2295009,0,0,0.2295009,174.08363,524.52018)"><path
       d="m 4.0156,-31.891 h 8.2188 v 25.672 h 14.453 V -2e-4 H 4.0154 Z"
       id="path2502" /></g><g
     id="use98"
     transform="matrix(0.2295009,0,0,0.2295009,180.48187,524.52018)"><path
       d="m 15.062,-19.031 c -1.6992,0 -2.9961,0.60938 -3.8906,1.8281 -0.88672,1.2188 -1.3281,2.9766 -1.3281,5.2656 0,2.293 0.44141,4.0469 1.3281,5.2656 0.89453,1.2188 2.1914,1.8281 3.8906,1.8281 1.6641,0 2.9375,-0.60938 3.8125,-1.8281 0.88281,-1.2188 1.3281,-2.9727 1.3281,-5.2656 0,-2.2891 -0.44531,-4.0469 -1.3281,-5.2656 -0.875,-1.2188 -2.1484,-1.8281 -3.8125,-1.8281 z m 0,-5.4688 c 4.1133,0 7.3281,1.1094 9.6406,3.3281 2.3125,2.2187 3.4688,5.2969 3.4688,9.2344 0,3.9297 -1.1562,7.0078 -3.4688,9.2344 -2.3125,2.2188 -5.5273,3.3281 -9.6406,3.3281 -4.1367,0 -7.3711,-1.1094 -9.7031,-3.3281 -2.3242,-2.2266 -3.4844,-5.3047 -3.4844,-9.2344 0,-3.9375 1.1602,-7.0156 3.4844,-9.2344 2.332,-2.2188 5.5664,-3.3281 9.7031,-3.3281 z m 3.7656,-10.484 h 6.0312 l -7.875,8.0312 h -4.1875 z"
       id="path2494" /></g><g
     id="use100"
     transform="matrix(0.2295009,0,0,0.2295009,187.38034,524.52018)"><path
       d="M 11.328,-3.4531 V 9.0939 H 3.6718 v -33.016 h 7.6562 v 3.5 c 1.0508,-1.3945 2.2188,-2.4219 3.5,-3.0781 1.2812,-0.66406 2.7539,-1 4.4219,-1 2.9453,0 5.3672,1.1719 7.2656,3.5156 1.8945,2.3438 2.8438,5.3594 2.8438,9.0469 0,3.6875 -0.94922,6.7031 -2.8438,9.0469 -1.8984,2.3438 -4.3203,3.5156 -7.2656,3.5156 -1.668,0 -3.1406,-0.33594 -4.4219,-1 -1.2813,-0.66406 -2.4492,-1.6914 -3.5,-3.0781 z m 5.0781,-15.5 c -1.6367,0 -2.8906,0.60547 -3.7656,1.8125 -0.875,1.1992 -1.3125,2.9336 -1.3125,5.2031 0,2.2617 0.4375,3.9961 1.3125,5.2031 0.875,1.1992 2.1289,1.7969 3.7656,1.7969 1.6328,0 2.8828,-0.59766 3.75,-1.7969 0.86328,-1.1953 1.2969,-2.9297 1.2969,-5.2031 0,-2.2812 -0.43359,-4.0195 -1.2969,-5.2188 -0.86719,-1.1953 -2.1172,-1.7969 -3.75,-1.7969 z"
       id="path2522" /></g><g
     id="use102"
     transform="matrix(0.2295009,0,0,0.2295009,194.56749,524.52018)"><path
       d="m 27.562,-12.031 v 2.1875 H 9.671 c 0.1875,1.793 0.83203,3.1367 1.9375,4.0312 1.1133,0.89844 2.6719,1.3438 4.6719,1.3438 1.6016,0 3.25,-0.23438 4.9375,-0.70312 1.6875,-0.47656 3.4219,-1.2031 5.2031,-2.1719 v 5.8906 c -1.8047,0.6875 -3.6094,1.2031 -5.4219,1.5469 -1.8125,0.35156 -3.6211,0.53125 -5.4219,0.53125 -4.3359,0 -7.7031,-1.0977 -10.109,-3.2969 -2.3984,-2.207 -3.5938,-5.2969 -3.5938,-9.2656 0,-3.9062 1.1758,-6.9727 3.5312,-9.2031 2.3633,-2.2383 5.6094,-3.3594 9.7344,-3.3594 3.7578,0 6.7695,1.1367 9.0312,3.4062 2.2578,2.2617 3.3906,5.2812 3.3906,9.0625 z m -7.8594,-2.5312 c 0,-1.457 -0.42969,-2.6289 -1.2812,-3.5156 -0.84375,-0.89453 -1.9492,-1.3438 -3.3125,-1.3438 -1.4922,0 -2.6992,0.41797 -3.625,1.25 -0.91797,0.83594 -1.4922,2.0391 -1.7188,3.6094 z"
       id="path2558" /></g><g
     id="use104"
     transform="matrix(0.2295009,0,0,0.2295009,201.37721,524.52018)"><path
       d="m 2.5,-23.922 h 20.875 v 5.3438 L 10.766,-5.4692 H 23.375 V -4e-4 H 1.969 v -5.3438 l 12.594,-13.109 H 2.501 Z"
       id="path2498" /></g></g></svg>
