<?xml version="1.0" encoding="UTF-8" standalone="no"?>
<svg
   width="200"
   height="200"
   viewBox="0 0 200 200"
   version="1.1"
   xml:space="preserve"
   style="fill-rule:evenodd;clip-rule:evenodd;stroke-linejoin:round;stroke-miterlimit:2;"
   id="svg28"
   sodipodi:docname="foreign.svg"
   inkscape:version="1.1.2 (b8e25be833, 2022-02-05)"
   xmlns:inkscape="http://www.inkscape.org/namespaces/inkscape"
   xmlns:sodipodi="http://sodipodi.sourceforge.net/DTD/sodipodi-0.dtd"
   xmlns="http://www.w3.org/2000/svg"
   xmlns:svg="http://www.w3.org/2000/svg"><defs
   id="defs32">
        
        
        
        
        
    </defs><sodipodi:namedview
   id="namedview30"
   pagecolor="#ffffff"
   bordercolor="#666666"
   borderopacity="1.0"
   inkscape:pageshadow="2"
   inkscape:pageopacity="0.0"
   inkscape:pagecheckerboard="0"
   showgrid="false"
   inkscape:zoom="4.365"
   inkscape:cx="113.51661"
   inkscape:cy="145.47537"
   inkscape:window-width="2560"
   inkscape:window-height="1377"
   inkscape:window-x="-8"
   inkscape:window-y="-8"
   inkscape:window-maximized="1"
   inkscape:current-layer="svg28" />
    <path
   id="rect5322"
   d="M 200,7.5 C 200,3.36 196.64,0 192.5,0 H 7.5 C 3.36,0 0,3.36 0,7.5 v 185 c 0,4.14 3.36,7.5 7.5,7.5 h 185 c 4.14,0 7.5,-3.36 7.5,-7.5 z"
   style="fill:#222222;stroke-width:2" /><path
   id="rect5324"
   d="m 190,15 c 0,-2.76 -2.24,-5 -5,-5 H 15 c -2.76,0 -5,2.24 -5,5 v 170 c 0,2.76 2.24,5 5,5 h 170 c 2.76,0 5,-2.24 5,-5 z"
   style="fill:#00cccc;stroke-width:2" /><path
   id="path5326"
   d="m 5.5,140 v 50 c 0,11.634 9.366,2.5 21,2.5 h 147 c 11.634,0 21,9.134 21,-2.5 v -50 z"
   style="fill:#222222;fill-rule:nonzero;stroke-width:2" />
<text
   xml:space="preserve"
   style="font-style:normal;font-weight:normal;font-size:40px;line-height:1.25;font-family:sans-serif;fill:#ffffff;fill-opacity:1;stroke:none"
   x="25.658648"
   y="179.15234"
   id="text1561"><tspan
     sodipodi:role="line"
     id="tspan1559"
     x="25.658648"
     y="179.15234">Foreign</tspan></text><path
   d="m 50.900736,51.708809 c 0.375877,0 0.736357,-0.149444 1.002631,-0.415734 0.265369,-0.26537 0.41483,-0.62585 0.41483,-1.002631 v -0.601411 9.27e-4 c 0.0163,-0.385846 -0.125896,-0.762627 -0.393081,-1.040679 -0.267178,-0.278957 -0.636725,-0.43746 -1.023475,-0.43746 -0.385847,0 -0.756274,0.158501 -1.023476,0.43746 -0.267178,0.278052 -0.40938,0.654833 -0.39308,1.040679 v 0.601412 -9.28e-4 c 0,0.782545 0.633107,1.416556 1.415651,1.418365 z"
   id="path70"
   style="stroke-width:0.231865" /><path
   d="M 154.81567,21.055098 H 41.621499 c -0.78164,0 -1.415651,0.633107 -1.41746,1.414747 v 9.2746 c 0,0.06068 0.01268,0.119554 0.01812,0.17752 0.0054,0.05797 -0.01812,0.116839 -0.01812,0.177521 v 93.119294 c 0,0.0607 0.01268,0.11956 0.01812,0.17752 0.0054,0.058 -0.01812,0.11684 -0.01812,0.17753 v 9.27738 c 0.0018,0.78164 0.63582,1.41474 1.41746,1.41474 H 154.81567 c 0.78164,0 1.41565,-0.6331 1.41746,-1.41474 v -9.2746 c 0,-0.0607 -0.0127,-0.11956 -0.0181,-0.17752 -0.005,-0.058 0.0181,-0.11684 0.0181,-0.17752 V 32.102268 c 0,-0.06068 -0.0127,-0.119554 -0.0181,-0.17752 -0.005,-0.05797 0.0181,-0.116839 0.0181,-0.177521 v -9.277382 c -0.002,-0.78164 -0.63582,-1.414747 -1.41746,-1.414747 z M 43.040513,33.164711 h 6.441441 v 9.56814 c 0.0317,0.758987 0.656642,1.357686 1.415652,1.357686 0.759891,0 1.38486,-0.598676 1.416556,-1.357686 v -9.56814 h 13.826805 v 27.213993 h -2.016136 c -1.548788,-0.0036 -3.031402,0.627659 -4.102851,1.745318 -1.071471,1.117659 -1.639355,2.625639 -1.570514,4.172642 0.06793,1.54698 0.766244,2.998942 1.932803,4.017757 -1.230878,1.07328 -1.937347,2.626566 -1.937347,4.259591 0,1.633026 0.706469,3.186289 1.937347,4.258665 -1.230878,1.074184 -1.938252,2.627494 -1.938252,4.260519 0,1.633929 0.707374,3.187216 1.938252,4.260519 -1.166559,1.018931 -1.86489,2.470753 -1.932803,4.017757 -0.06884,1.547884 0.499043,3.055053 1.570514,4.173569 1.071472,1.117659 2.554225,1.748054 4.102851,1.745318 h 2.016136 V 124.15656 H 52.316945 V 57.780565 c 0.0163,-0.386751 -0.125896,-0.762628 -0.393081,-1.041584 -0.267178,-0.278957 -0.636725,-0.436556 -1.023475,-0.436556 -0.385847,0 -0.756274,0.157597 -1.023476,0.436556 -0.267178,0.278956 -0.409381,0.654833 -0.39308,1.041584 v 66.375995 h -6.443297 z m 21.084411,61.291191 c -0.768957,0.02355 -1.513452,-0.266274 -2.065036,-0.801557 -0.551583,-0.535284 -0.863164,-1.270736 -0.863164,-2.039693 0,-0.768957 0.311581,-1.50441 0.863164,-2.039693 0.551584,-0.535284 1.296079,-0.825115 2.065036,-0.801558 h 12.756284 c 0.768053,-0.02355 1.513453,0.266274 2.065036,0.801558 0.551584,0.535283 0.86226,1.270736 0.86226,2.039693 0,0.768957 -0.310653,1.504409 -0.86226,2.039693 -0.551606,0.535283 -1.297006,0.825115 -2.065036,0.801557 z m 11.292521,2.835013 V 124.15943 H 68.976004 V 97.293234 Z M 76.881093,85.936719 H 64.124808 v 9.27e-4 c -1.570514,0 -2.843128,-1.272545 -2.843128,-2.843128 0,-1.569611 1.272544,-2.842202 2.843128,-2.842202 h 12.756285 c 1.56961,0 2.843128,1.272545 2.843128,2.842202 0,1.570514 -1.273449,2.843128 -2.843128,2.843128 z m 0,-8.518256 H 64.124808 v 9.27e-4 c -1.570514,0 -2.843128,-1.272545 -2.843128,-2.843128 0,-1.569611 1.272544,-2.843129 2.843128,-2.843129 h 12.756285 c 1.56961,0 2.843128,1.273449 2.843128,2.843129 0,1.570514 -1.273449,2.843128 -2.843128,2.843128 z m 0,-8.521039 H 64.124808 v 9.28e-4 c -0.768957,0.02265 -1.513452,-0.266274 -2.065036,-0.801558 -0.551583,-0.535283 -0.863164,-1.27164 -0.863164,-2.039693 0,-0.768957 0.311581,-1.505314 0.863164,-2.040597 0.551584,-0.535284 1.296079,-0.824211 2.065036,-0.801557 h 12.756285 c 0.768052,-0.02265 1.513452,0.266273 2.065036,0.801557 0.551583,0.535283 0.862259,1.27164 0.862259,2.040597 0,0.768053 -0.310653,1.50441 -0.862259,2.039693 -0.551607,0.535284 -1.297007,0.824211 -2.065036,0.801558 z M 153.39654,133.43936 H 43.040397 v -6.44144 h 70.795333 c 0.78345,0 1.41837,-0.63491 1.41837,-1.41746 0,-0.78345 -0.63492,-1.41746 -1.41837,-1.41746 h -9.64952 V 33.165267 h 14.00163 v 27.436584 c -0.58963,0.16756 -1.14845,0.43113 -1.65294,0.778928 -0.97184,-0.662091 -2.1212,-1.016218 -3.29689,-1.01441 -1.56509,0.0054 -3.0641,0.632203 -4.16731,1.740796 -1.10407,1.109521 -1.72269,2.611264 -1.72178,4.175425 v 13.440982 c -0.002,1.063309 0.2844,2.107606 0.82782,3.02236 0.54435,0.913872 1.32507,1.662912 2.26069,2.169213 0.8713,0.564266 1.88481,0.868589 2.92196,0.877655 0.44381,-9.27e-4 0.8858,-0.06431 1.31148,-0.190201 0.32968,0.665707 0.78616,1.260766 1.34409,1.75167 -1.16475,1.019835 -1.86125,2.471681 -1.92918,4.017757 -0.0679,1.546076 0.49904,3.053198 1.57051,4.170787 1.07057,1.117659 2.55144,1.748958 4.09938,1.748054 h 7.71484 l -9.3e-4,26.866193 h -6.44144 v -22.37311 c 0.0163,-0.38585 -0.12499,-0.76173 -0.39308,-1.04068 -0.26718,-0.27896 -0.63672,-0.43656 -1.02348,-0.43656 -0.38584,0 -0.75537,0.1576 -1.02347,0.43656 -0.26718,0.27895 -0.40848,0.65483 -0.39218,1.04068 v 23.43459 c 0.0236,0.11774 0.0236,0.2382 0,0.35503 -9.2e-4,0.37588 0.14764,0.73636 0.413,1.00263 0.26537,0.26537 0.62585,0.41483 1.00173,0.41483 h 33.78736 z M 94.920189,124.15758 V 33.164479 h 6.441441 V 124.15758 Z M 132.50318,85.93695 h -12.75883 c -1.56961,0 -2.84313,-1.272544 -2.84313,-2.843128 0,-1.56961 1.27345,-2.842201 2.84313,-2.842201 h 12.75883 c 1.57052,0 2.84313,1.272545 2.84313,2.842201 0,1.570514 -1.27254,2.843128 -2.84313,2.843128 z m 2.84035,5.67536 v 9.27e-4 c -0.002,1.567802 -1.27164,2.839419 -2.84035,2.842201 h -12.75883 c -0.76805,0.02355 -1.51345,-0.266273 -2.06504,-0.801557 -0.55158,-0.535283 -0.86226,-1.270736 -0.86226,-2.039693 0,-0.768957 0.31066,-1.50441 0.86226,-2.039693 0.55161,-0.535284 1.29701,-0.825115 2.06504,-0.801557 h 12.75883 c 1.56781,9.27e-4 2.8385,1.27164 2.84035,2.840346 z m -2.84035,-14.201731 -12.75883,9.28e-4 c -1.56961,0 -2.84313,-1.273449 -2.84313,-2.843129 0,-1.570514 1.27345,-2.843128 2.84313,-2.843128 h 12.75883 c 1.57052,0 2.84313,1.272544 2.84313,2.843128 0,1.56961 -1.27254,2.843129 -2.84313,2.843129 z m -16.49951,1.414748 v 9.27e-4 c -1.14845,1.008079 -1.84133,2.437365 -1.91921,3.9635 -1.00173,0.459209 -1.98354,-0.172088 -2.09221,-0.253614 -0.0543,-0.03804 -0.11141,-0.07246 -0.17028,-0.103252 -1.01531,-0.52893 -1.65204,-1.578675 -1.65113,-2.724413 V 66.267493 c 0.002,-1.071471 0.56155,-2.064131 1.47723,-2.621233 0.91568,-0.556105 2.05419,-0.595963 3.00706,-0.105065 -0.55339,1.117658 -0.72096,2.386586 -0.47641,3.60921 0.24364,1.222717 0.88579,2.330475 1.82503,3.14919 -1.22907,1.074184 -1.93464,2.627494 -1.93464,4.259592 0,1.632121 0.70557,3.185361 1.93464,4.259592 z m 37.39055,45.331923 H 130.29374 V 97.291054 h 2.20905 c 1.54789,0.0019 3.03048,-0.628562 4.10123,-1.747149 1.07147,-1.117658 1.63845,-2.625639 1.56961,-4.171715 -0.0679,-1.54698 -0.76715,-2.998941 -1.9328,-4.017756 1.23087,-1.07328 1.93825,-2.626567 1.93825,-4.260519 0,-1.633025 -0.70738,-3.186289 -1.93825,-4.26052 1.23087,-1.072375 1.93734,-2.625639 1.93734,-4.258664 0,-1.633025 -0.70647,-3.186288 -1.93734,-4.259592 1.4881,-1.301527 2.19093,-3.284135 1.85401,-5.231337 -0.33692,-1.9482 -1.66382,-3.580228 -3.50232,-4.306661 -0.35141,-0.148539 -0.74814,-0.149444 -1.09955,-0.0019 -0.35232,0.147633 -0.63039,0.430226 -0.77077,0.785258 -0.14038,0.354127 -0.13223,0.750848 0.0227,1.09955 0.15578,0.348701 0.44471,0.61952 0.80336,0.752657 1.2671,0.502683 1.99893,1.835002 1.74442,3.174463 -0.25543,1.339554 -1.4256,2.30868 -2.78957,2.310488 h -12.75884 c -0.76805,0.02263 -1.51345,-0.266273 -2.06503,-0.801557 -0.55159,-0.535283 -0.86226,-1.27164 -0.86226,-2.039693 0,-0.768957 0.31065,-1.505314 0.86226,-2.040597 0.55158,-0.535284 1.297,-0.824211 2.06503,-0.801558 h 9.12969 c 0.78345,0 1.41746,-0.634916 1.41746,-1.41746 -9.3e-4,-0.120461 -0.0181,-0.239099 -0.0507,-0.355032 0.0326,-0.115932 0.0498,-0.234577 0.0507,-0.355031 V 33.165635 h 13.8268 v 86.731415 c -0.0163,0.38585 0.1259,0.76173 0.39308,1.04068 0.26718,0.27896 0.63673,0.43656 1.02348,0.43656 0.38585,0 0.75627,-0.1576 1.02347,-0.43656 0.26718,-0.27895 0.40939,-0.65483 0.39309,-1.04068 V 33.165635 h 6.44144 z M 121.01659,60.378148 V 33.164154 h 6.44144 V 60.378148 Z M 153.39422,30.328445 H 93.4919 c -0.782544,0 -1.416556,0.633108 -1.418364,1.414748 0.0027,0.05978 0.0082,0.11865 0.01811,0.17752 -0.01,0.05887 -0.0154,0.117744 -0.01811,0.177521 V 124.15559 H 78.247658 V 97.115496 c 1.347716,-0.331498 2.526865,-1.146642 3.314047,-2.291476 0.786161,-1.143929 1.124012,-2.536835 0.950113,-3.914576 -0.172992,-1.376699 -0.846841,-2.642798 -1.892969,-3.555882 1.230878,-1.07328 1.937348,-2.626567 1.937348,-4.260519 0,-1.633025 -0.70647,-3.186289 -1.937348,-4.260519 1.230878,-1.072376 1.937348,-2.625639 1.937348,-4.258665 0,-1.633025 -0.70647,-3.186288 -1.937348,-4.259591 0.941047,-0.817858 1.584102,-1.925569 1.827745,-3.149191 0.244548,-1.222716 0.07608,-2.492548 -0.479126,-3.60921 0.952826,-0.490905 2.091307,-0.451951 3.007058,0.105063 0.91575,0.557014 1.475426,1.549692 1.477235,2.621233 v 13.440982 c 0.0027,1.145738 -0.634916,2.196387 -1.651134,2.723486 -0.693787,0.363193 -0.962773,1.220004 -0.59958,1.913791 0.362289,0.693786 1.2191,0.962773 1.912886,0.599579 0.957348,-0.499043 1.759809,-1.250795 2.319578,-2.174638 0.558841,-0.922939 0.854097,-1.982631 0.853193,-3.062241 V 66.28214 c -9.27e-4,-1.43376 -0.5226,-2.817623 -1.469073,-3.894636 -0.946473,-1.076897 -2.251618,-1.773396 -3.673669,-1.958169 -1.421982,-0.185673 -2.862142,0.152161 -4.053,0.951017 -0.941952,-0.657546 -2.063228,-1.011697 -3.21249,-1.014409 H 68.973267 V 33.163542 h 6.441442 v 22.608691 c -0.0163,0.385847 0.125896,0.761723 0.39308,1.04068 0.267179,0.278957 0.636725,0.436555 1.023476,0.436555 0.386751,0 0.756274,-0.157596 1.023475,-0.436555 0.267201,-0.278959 0.409381,-0.654833 0.393081,-1.04068 V 33.163542 h 8.906861 -9.27e-4 c 0.783449,0 1.418365,-0.634916 1.418365,-1.41746 0,-0.783449 -0.634916,-1.41746 -1.418365,-1.41746 H 43.027529 V 23.881615 H 153.39526 Z"
   id="path72"
   style="stroke-width:0.231865" /><g
   id="use74"
   transform="matrix(2.2360475,0,0,2.2360475,33.078278,231.71701)"><path
     d="M 3.6562,-0.21875 C 3.4687,-0.125 3.26948,-0.05078 3.06245,0 2.86323,0.050781 2.6562,0.078125 2.43745,0.078125 c -0.66797,0 -1.1992,-0.17969 -1.5938,-0.54688 -0.38672,-0.375 -0.57812,-0.87891 -0.57812,-1.5156 0,-0.64453 0.19141,-1.1484 0.57812,-1.5156 0.39453,-0.375 0.92578,-0.5625 1.5938,-0.5625 0.21875,0 0.42578,0.027344 0.625,0.078125 0.20703,0.054687 0.40625,0.125 0.59375,0.21875 v 0.82812 c -0.1875,-0.125 -0.375,-0.21875 -0.5625,-0.28125 -0.17969,-0.0625 -0.37109,-0.09375 -0.57812,-0.09375 -0.36719,0 -0.65625,0.12109 -0.875,0.35938 -0.21094,0.23047 -0.3125,0.55469 -0.3125,0.96875 0,0.40625 0.10156,0.73047 0.3125,0.96875 0.21875,0.23047 0.50781,0.34375 0.875,0.34375 0.20703,0 0.39844,-0.023437 0.57812,-0.078125 0.1875,-0.0625 0.375,-0.16016 0.5625,-0.29688 z"
     id="path4576" /></g><g
   id="use76"
   transform="matrix(2.2360475,0,0,2.2360475,42.048671,231.71701)"><path
     d="M 2.6875,-2.1719 C 2.601562,-2.210963 2.51953,-2.242213 2.4375,-2.26565 2.351562,-2.285181 2.26953,-2.2969 2.1875,-2.2969 c -0.25,0 -0.44531,0.085937 -0.57812,0.25 -0.125,0.15625 -0.1875,0.38281 -0.1875,0.67188 V -2e-5 H 0.45313 v -2.9844 h 0.96875 v 0.48438 c 0.11328,-0.19531 0.25,-0.33594 0.40625,-0.42188 0.16406,-0.09375 0.35938,-0.14062 0.57812,-0.14062 h 0.10938 c 0.039063,0 0.09375,0.00781 0.15625,0.015625 z"
     id="path4564" /></g><g
   id="use78"
   transform="matrix(2.2360475,0,0,2.2360475,48.084259,231.71701)"><path
     d="m 3.4375,-1.5 v 0.26562 H 1.2031 c 0.03125,0.23047 0.11328,0.40234 0.25,0.51562 0.13281,0.10547 0.32812,0.15625 0.57812,0.15625 0.20703,0 0.41406,-0.023438 0.625,-0.078125 0.20703,-0.0625 0.42188,-0.15625 0.64062,-0.28125 v 0.73438 c -0.21875,0.09375 -0.44531,0.16406 -0.67188,0.20312 -0.23047,0.039062 -0.45312,0.0625 -0.67188,0.0625 -0.54297,0 -0.96484,-0.13281 -1.2656,-0.40625 -0.30469,-0.28125 -0.45312,-0.67188 -0.45312,-1.1719 0,-0.47656 0.14453,-0.85938 0.4375,-1.1406 0.30078,-0.28125 0.70703,-0.42188 1.2188,-0.42188 0.46875,0 0.84375,0.14062 1.125,0.42188 0.28125,0.28126 0.42188,0.66406 0.42188,1.1406 z M 2.46875,-1.82812 C 2.46875,-2.0039 2.410156,-2.14453 2.29687,-2.25 2.1914,-2.36328 2.05468,-2.42188 1.89062,-2.42188 c -0.1875,0 -0.33984,0.054687 -0.45312,0.15625 -0.11719,0.10547 -0.1875,0.25 -0.21875,0.4375 z"
     id="path4596" /></g><g
   id="use80"
   transform="matrix(2.2360475,0,0,2.2360475,56.373359,231.71701)"><path
     d="m 1.7969,-1.3438 c -0.19922,0 -0.35156,0.039062 -0.45312,0.10938 -0.09375,0.0625 -0.14062,0.16406 -0.14062,0.29688 0,0.11719 0.035156,0.21094 0.10938,0.28125 0.082031,0.0625 0.19531,0.09375 0.34375,0.09375 0.17578,0 0.32812,-0.0625 0.45312,-0.1875 0.125,-0.125 0.1875,-0.28516 0.1875,-0.48438 V -1.3438 Z M 3.2657,-1.70318 V -8e-5 H 2.29695 v -0.4375 c -0.125,0.17969 -0.27344,0.30859 -0.4375,0.39062 -0.15625,0.082031 -0.35156,0.125 -0.57812,0.125 -0.3125,0 -0.57031,-0.085938 -0.76562,-0.26562 -0.1875,-0.1875 -0.28125,-0.42188 -0.28125,-0.70312 0,-0.35156 0.11719,-0.61328 0.35938,-0.78125 0.23828,-0.16406 0.61719,-0.25 1.1406,-0.25 h 0.5625 v -0.0625 c 0,-0.15625 -0.0625,-0.26562 -0.1875,-0.32812 -0.11719,-0.070312 -0.29688,-0.10938 -0.54688,-0.10938 -0.21094,0 -0.40234,0.023437 -0.57812,0.0625 -0.17969,0.042969 -0.33984,0.10156 -0.48438,0.17188 v -0.71875 c 0.19531,-0.050781 0.39844,-0.085938 0.60938,-0.10938 0.20703,-0.03125 0.41406,-0.046875 0.625,-0.046875 0.53906,0 0.92969,0.10938 1.1719,0.32812 0.23828,0.21094 0.35938,0.55469 0.35938,1.0312 z"
     id="path4584" /></g><g
   id="use82"
   transform="matrix(2.2360475,0,0,2.2360475,64.62751,231.71701)"><path
     d="m 1.5,-3.8438 v 0.85938 h 0.98438 v 0.67188 H 1.5 v 1.2812 c 0,0.13672 0.023438,0.23047 0.078125,0.28125 0.0625,0.042969 0.17578,0.0625 0.34375,0.0625 h 0.48438 V -9e-5 h -0.8125 c -0.38672,0 -0.65625,-0.078125 -0.8125,-0.23438 -0.15625,-0.156255 -0.23438,-0.42188 -0.23438,-0.79688 v -1.2812 h -0.46875 v -0.67188 h 0.46875 v -0.85938 z"
     id="path4612" /></g><g
   id="use84"
   transform="matrix(2.2360475,0,0,2.2360475,70.470937,231.71701)"><path
     d="m 3.4375,-1.5 v 0.26562 H 1.2031 c 0.03125,0.23047 0.11328,0.40234 0.25,0.51562 0.13281,0.10547 0.32812,0.15625 0.57812,0.15625 0.20703,0 0.41406,-0.023438 0.625,-0.078125 0.20703,-0.0625 0.42188,-0.15625 0.64062,-0.28125 v 0.73438 c -0.21875,0.09375 -0.44531,0.16406 -0.67188,0.20312 -0.23047,0.039062 -0.45312,0.0625 -0.67188,0.0625 -0.54297,0 -0.96484,-0.13281 -1.2656,-0.40625 -0.30469,-0.28125 -0.45312,-0.67188 -0.45312,-1.1719 0,-0.47656 0.14453,-0.85938 0.4375,-1.1406 0.30078,-0.28125 0.70703,-0.42188 1.2188,-0.42188 0.46875,0 0.84375,0.14062 1.125,0.42188 0.28125,0.28126 0.42188,0.66406 0.42188,1.1406 z M 2.46875,-1.82812 C 2.46875,-2.0039 2.410156,-2.14453 2.29687,-2.25 2.1914,-2.36328 2.05468,-2.42188 1.89062,-2.42188 c -0.1875,0 -0.33984,0.054687 -0.45312,0.15625 -0.11719,0.10547 -0.1875,0.25 -0.21875,0.4375 z"
     id="path4600" /></g><g
   id="use86"
   transform="matrix(2.2360475,0,0,2.2360475,78.768765,231.71701)"><path
     d="M 2.5,-2.5469 V -4.1563 H 3.45312 V -1e-4 H 2.5 v -0.4375 c -0.13672,0.17969 -0.28125,0.30859 -0.4375,0.39062 -0.15625,0.082031 -0.33984,0.125 -0.54688,0.125 -0.375,0 -0.68359,-0.14453 -0.92188,-0.4375 -0.23047,-0.28906 -0.34375,-0.67188 -0.34375,-1.1406 0,-0.45703 0.11328,-0.83203 0.34375,-1.125 0.23828,-0.28906 0.54688,-0.4375 0.92188,-0.4375 0.19531,0 0.375,0.042969 0.53125,0.125 0.16406,0.085938 0.31641,0.21484 0.45312,0.39062 z m -0.64062,1.9375 c 0.20703,0 0.36328,-0.070313 0.46875,-0.21875 0.11328,-0.15625 0.17188,-0.37891 0.17188,-0.67188 0,-0.28125 -0.058594,-0.49219 -0.17188,-0.64062 -0.10547,-0.15625 -0.26172,-0.23438 -0.46875,-0.23438 -0.19922,0 -0.35547,0.078125 -0.46875,0.23438 -0.10547,0.14844 -0.15625,0.35938 -0.15625,0.64062 0,0.29297 0.050781,0.51562 0.15625,0.67188 0.11328,0.14844 0.26953,0.21875 0.46875,0.21875 z"
     id="path4592" /></g><g
   id="use88"
   transform="matrix(2.2360475,0,0,2.2360475,91.774526,231.71701)"><path
     d="m 2.0469,-0.60938 c 0.20703,0 0.36328,-0.070313 0.46875,-0.21875 0.11328,-0.15625 0.17188,-0.37891 0.17188,-0.67188 0,-0.28125 -0.058594,-0.49219 -0.17188,-0.64062 -0.10547,-0.15625 -0.26172,-0.23438 -0.46875,-0.23438 -0.19922,0 -0.35547,0.078125 -0.46875,0.23438 -0.10547,0.14844 -0.15625,0.35938 -0.15625,0.64062 0,0.29297 0.050781,0.51562 0.15625,0.67188 0.11328,0.14844 0.26953,0.21875 0.46875,0.21875 z m -0.625,-1.9375 c 0.125,-0.17578 0.26562,-0.30469 0.42188,-0.39062 0.16406,-0.082031 0.35156,-0.125 0.5625,-0.125 0.36328,0 0.66406,0.14844 0.90625,0.4375 0.23828,0.29297 0.35938,0.66797 0.35938,1.125 0,0.46875 -0.12109,0.85156 -0.35938,1.1406 -0.24219,0.29297 -0.54297,0.4375 -0.90625,0.4375 -0.21094,0 -0.39844,-0.042969 -0.5625,-0.125 C 1.68753,-0.128931 1.5469,-0.25784 1.4219,-0.43752 V -2e-5 H 0.45315 v -4.1562 H 1.4219 Z"
     id="path4580" /></g><g
   id="use90"
   transform="matrix(2.2360475,0,0,2.2360475,100.53529,231.71701)"><path
     d="m 0.0625,-2.9844 h 0.95312 l 0.8125,2.0156 0.6875,-2.0156 H 3.46874 L 2.20314,0.2812 C 2.07814,0.61323 1.9297,0.84761 1.76564,0.98432 1.59767,1.11713 1.37502,1.18744 1.09376,1.18744 H 0.54688 V 0.54682 h 0.29688 c 0.16406,0 0.28516,-0.027344 0.35938,-0.078125 0.070313,-0.054688 0.12891,-0.14062 0.17188,-0.26562 l 0.03125,-0.09375 z"
     id="path4544" /></g><g
   id="use92"
   transform="matrix(2.2360475,0,0,2.2360475,112.76368,231.71701)"><path
     d="m 0.5,-3.9844 h 1.3125 l 0.90625,2.125 0.90625,-2.125 H 4.9375 V 0 H 3.96875 V -2.9219 L 3.04687,-0.7657 H 2.39062 L 1.48437,-2.9219 V 0 H 0.49999 Z"
     id="path4512" /></g><g
   id="use94"
   transform="matrix(2.2360475,0,0,2.2360475,124.93091,231.71701)"><path
     d="m 1.7969,-1.3438 c -0.19922,0 -0.35156,0.039062 -0.45312,0.10938 -0.09375,0.0625 -0.14062,0.16406 -0.14062,0.29688 0,0.11719 0.035156,0.21094 0.10938,0.28125 0.082031,0.0625 0.19531,0.09375 0.34375,0.09375 0.17578,0 0.32812,-0.0625 0.45312,-0.1875 0.125,-0.125 0.1875,-0.28516 0.1875,-0.48438 V -1.3438 Z M 3.2657,-1.70318 V -8e-5 H 2.29695 v -0.4375 c -0.125,0.17969 -0.27344,0.30859 -0.4375,0.39062 -0.15625,0.082031 -0.35156,0.125 -0.57812,0.125 -0.3125,0 -0.57031,-0.085938 -0.76562,-0.26562 -0.1875,-0.1875 -0.28125,-0.42188 -0.28125,-0.70312 0,-0.35156 0.11719,-0.61328 0.35938,-0.78125 0.23828,-0.16406 0.61719,-0.25 1.1406,-0.25 h 0.5625 v -0.0625 c 0,-0.15625 -0.0625,-0.26562 -0.1875,-0.32812 -0.11719,-0.070312 -0.29688,-0.10938 -0.54688,-0.10938 -0.21094,0 -0.40234,0.023437 -0.57812,0.0625 -0.17969,0.042969 -0.33984,0.10156 -0.48438,0.17188 v -0.71875 c 0.19531,-0.050781 0.39844,-0.085938 0.60938,-0.10938 0.20703,-0.03125 0.41406,-0.046875 0.625,-0.046875 0.53906,0 0.92969,0.10938 1.1719,0.32812 0.23828,0.21094 0.35938,0.55469 0.35938,1.0312 z"
     id="path4588" /></g><g
   id="use96"
   transform="matrix(2.2360475,0,0,2.2360475,133.17633,231.71701)"><path
     d="M 1.2188,-1.5312 0.1407,-2.9843 h 1 l 0.625,0.875 0.60938,-0.875 h 1.0156 L 2.31258,-1.5312 3.43758,0 h -1 L 1.7657,-0.9375 1.09382,0 h -1.0156 z"
     id="path4540" /></g><g
   id="use98"
   transform="matrix(2.2360475,0,0,2.2360475,141.06365,231.71701)"><path
     d="M 0.45312,-2.9844 H 1.42187 V 0 H 0.45312 Z m 0,-1.1719 h 0.96875 v 0.78125 H 0.45312 Z"
     id="path4484" /></g><g
   id="use100"
   transform="matrix(2.2360475,0,0,2.2360475,145.25624,231.71701)"><path
     d="m 2.875,-2.8906 v 0.76562 C 2.75,-2.207011 2.61719,-2.26951 2.48438,-2.31248 2.34766,-2.351542 2.21094,-2.37498 2.07813,-2.37498 c -0.27344,0 -0.48047,0.078125 -0.625,0.23438 -0.14844,0.15625 -0.21875,0.37109 -0.21875,0.64062 0,0.28125 0.070313,0.5 0.21875,0.65625 0.14453,0.15625 0.35156,0.23438 0.625,0.23438 0.14453,0 0.28516,-0.019531 0.42188,-0.0625 0.13281,-0.039063 0.25781,-0.10938 0.375,-0.20312 v 0.78125 c -0.14844,0.0625 -0.29688,0.10156 -0.45312,0.125 -0.15625,0.03125 -0.3125,0.046875 -0.46875,0.046875 -0.54297,0 -0.96484,-0.13281 -1.2656,-0.40625 -0.30469,-0.28125 -0.45312,-0.67188 -0.45312,-1.1719 0,-0.48828 0.14844,-0.86719 0.45312,-1.1406 0.30078,-0.28125 0.72266,-0.42188 1.2656,-0.42188 0.15625,0 0.3125,0.015625 0.46875,0.046875 0.15625,0.023437 0.30469,0.0625 0.45312,0.125 z"
     id="path4528" /></g><g
   id="use102"
   transform="matrix(2.2360475,0,0,2.2360475,152.50594,231.71701)"><path
     d="m 1.875,-2.375 c -0.21094,0 -0.37109,0.078125 -0.48438,0.23438 -0.10547,0.14844 -0.15625,0.35938 -0.15625,0.64062 0,0.29297 0.050781,0.51562 0.15625,0.67188 0.11328,0.14844 0.27344,0.21875 0.48438,0.21875 0.20703,0 0.36719,-0.070313 0.48438,-0.21875 C 2.47266,-0.98437 2.53126,-1.20703 2.53126,-1.5 2.53126,-1.78125 2.472666,-1.99219 2.35938,-2.14062 2.24219,-2.29687 2.08204,-2.375 1.875,-2.375 Z m 0,-0.6875 c 0.51953,0 0.92188,0.14062 1.2031,0.42188 0.28906,0.27344 0.4375,0.65234 0.4375,1.1406 0,0.5 -0.14844,0.89062 -0.4375,1.1719 C 2.79685,-0.05468 2.39451,0.07813 1.875,0.07813 1.36328,0.07813 0.96094,-0.05468 0.6719,-0.32812 0.37893,-0.60937 0.2344,-1 0.2344,-1.50002 c 0,-0.48828 0.14453,-0.86719 0.4375,-1.1406 C 0.96096,-2.92187 1.36331,-3.0625 1.875,-3.0625 Z"
     id="path4548" /></g><g
   id="use104"
   transform="matrix(2.2360475,0,0,2.2360475,160.90858,231.71701)"><path
     d="M 3.4688,-1.8281 V 0 H 2.50005 v -1.3906 c 0,-0.25781 -0.00781,-0.4375 -0.015625,-0.53125 -0.011719,-0.10156 -0.03125,-0.17578 -0.0625,-0.21875 -0.03125,-0.0625 -0.085937,-0.10938 -0.15625,-0.14062 -0.0625,-0.039062 -0.13281,-0.0625 -0.20312,-0.0625 -0.21094,0 -0.37109,0.078125 -0.48438,0.23438 -0.10547,0.15625 -0.15625,0.37109 -0.15625,0.64062 V 8e-5 h -0.96875 v -2.9844 h 0.96875 v 0.4375 c 0.13281,-0.17578 0.28516,-0.30469 0.45312,-0.39062 0.16406,-0.082031 0.34375,-0.125 0.53125,-0.125 0.34375,0 0.60156,0.10938 0.78125,0.32812 0.1875,0.21094 0.28125,0.51172 0.28125,0.90625 z"
     id="path4520" /></g><g
   id="use106"
   transform="matrix(2.2360475,0,0,2.2360475,169.61693,231.71701)"><path
     d="m 2.7969,-2.8906 v 0.71875 c -0.21094,-0.082031 -0.40625,-0.14453 -0.59375,-0.1875 -0.1875,-0.039063 -0.37109,-0.0625 -0.54688,-0.0625 -0.17969,0 -0.3125,0.023437 -0.40625,0.0625 -0.085938,0.042969 -0.125,0.10938 -0.125,0.20312 0,0.085938 0.03125,0.14844 0.09375,0.1875 0.070312,0.042969 0.19531,0.074219 0.375,0.09375 l 0.15625,0.015625 c 0.48828,0.0625 0.81641,0.16797 0.98438,0.3125 0.17578,0.13672 0.26562,0.35938 0.26562,0.67188 0,0.3125 -0.12109,0.55469 -0.35938,0.71875 -0.23047,0.15625 -0.57812,0.23438 -1.0469,0.23438 -0.19922,0 -0.40625,-0.015625 -0.625,-0.046875 C 0.7578,3e-5 0.54686,-0.046845 0.32812,-0.10934 v -0.71875 c 0.1875,0.085937 0.37891,0.15234 0.57812,0.20312 0.20703,0.042969 0.41406,0.0625 0.625,0.0625 0.1875,0 0.32812,-0.023438 0.42188,-0.078125 0.09375,-0.050781 0.14062,-0.125 0.14062,-0.21875 0,-0.09375 -0.039062,-0.16016 -0.10938,-0.20312 -0.0625,-0.039062 -0.1875,-0.070312 -0.375,-0.09375 L 1.43748,-1.17184 C 1.00779,-1.222621 0.70701,-1.32028 0.53123,-1.46872 c -0.16797,-0.14453 -0.25,-0.36328 -0.25,-0.65625 0,-0.32031 0.10938,-0.55469 0.32812,-0.70312 0.21875,-0.15625 0.55078,-0.23438 1,-0.23438 0.17578,0 0.35938,0.015625 0.54688,0.046875 0.19531,0.023437 0.41016,0.0625 0.64062,0.125 z"
     id="path4536" /></g><g
   id="use108"
   transform="matrix(2.2360475,0,0,2.2360475,33.078278,243.94538)"><path
     d="m 2.4219,-4.1562 v 0.625 H 1.90628 c -0.13672,0 -0.23438,0.027344 -0.29688,0.078125 -0.054687,0.054687 -0.078125,0.13672 -0.078125,0.25 v 0.21875 h 0.82812 v 0.67188 h -0.82812 v 2.3125 h -0.95312 v -2.3125 h -0.46875 v -0.67188 h 0.46875 v -0.21875 c 0,-0.32031 0.085937,-0.5625 0.26562,-0.71875 0.1875,-0.15625 0.47266,-0.23438 0.85938,-0.23438 z"
     id="path4516" /></g><g
   id="use110"
   transform="matrix(2.2360475,0,0,2.2360475,38.397625,243.94538)"><path
     d="M 2.6875,-2.1719 C 2.601562,-2.210963 2.51953,-2.242213 2.4375,-2.26565 2.351562,-2.285181 2.26953,-2.2969 2.1875,-2.2969 c -0.25,0 -0.44531,0.085937 -0.57812,0.25 -0.125,0.15625 -0.1875,0.38281 -0.1875,0.67188 V -2e-5 H 0.45313 v -2.9844 h 0.96875 v 0.48438 c 0.11328,-0.19531 0.25,-0.33594 0.40625,-0.42188 0.16406,-0.09375 0.35938,-0.14062 0.57812,-0.14062 h 0.10938 c 0.039063,0 0.09375,0.00781 0.15625,0.015625 z"
     id="path4568" /></g><g
   id="use112"
   transform="matrix(2.2360475,0,0,2.2360475,44.433213,243.94538)"><path
     d="m 1.875,-2.375 c -0.21094,0 -0.37109,0.078125 -0.48438,0.23438 -0.10547,0.14844 -0.15625,0.35938 -0.15625,0.64062 0,0.29297 0.050781,0.51562 0.15625,0.67188 0.11328,0.14844 0.27344,0.21875 0.48438,0.21875 0.20703,0 0.36719,-0.070313 0.48438,-0.21875 C 2.47266,-0.98437 2.53126,-1.20703 2.53126,-1.5 2.53126,-1.78125 2.472666,-1.99219 2.35938,-2.14062 2.24219,-2.29687 2.08204,-2.375 1.875,-2.375 Z m 0,-0.6875 c 0.51953,0 0.92188,0.14062 1.2031,0.42188 0.28906,0.27344 0.4375,0.65234 0.4375,1.1406 0,0.5 -0.14844,0.89062 -0.4375,1.1719 C 2.79685,-0.05468 2.39451,0.07813 1.875,0.07813 1.36328,0.07813 0.96094,-0.05468 0.6719,-0.32812 0.37893,-0.60937 0.2344,-1 0.2344,-1.50002 c 0,-0.48828 0.14453,-0.86719 0.4375,-1.1406 C 0.96096,-2.92187 1.36331,-3.0625 1.875,-3.0625 Z"
     id="path4552" /></g><g
   id="use114"
   transform="matrix(2.2360475,0,0,2.2360475,52.827121,243.94538)"><path
     d="m 3.2344,-2.5 c 0.11328,-0.17578 0.25391,-0.3125 0.42188,-0.40625 0.16406,-0.10156 0.35156,-0.15625 0.5625,-0.15625 0.33203,0 0.58594,0.10938 0.76562,0.32812 0.1875,0.21094 0.28125,0.51172 0.28125,0.90625 V -3e-5 H 4.2969 v -1.5625 c 0.00781,-0.019531 0.015625,-0.039062 0.015625,-0.0625 v -0.10938 c 0,-0.21875 -0.03125,-0.375 -0.09375,-0.46875 -0.0625,-0.09375 -0.16406,-0.14062 -0.29688,-0.14062 -0.1875,0 -0.33594,0.078125 -0.4375,0.23438 -0.09375,0.14844 -0.14062,0.35938 -0.14062,0.64062 V 2e-5 h -0.96875 v -1.5625 c 0,-0.33203 -0.03125,-0.54688 -0.09375,-0.64062 -0.054688,-0.09375 -0.15234,-0.14062 -0.29688,-0.14062 -0.17969,0 -0.32031,0.078125 -0.42188,0.23438 -0.09375,0.14844 -0.14062,0.35938 -0.14062,0.64062 V 8e-5 h -0.96875 v -2.9844 h 0.96875 v 0.4375 c 0.11328,-0.17578 0.24219,-0.30469 0.39062,-0.39062 0.15625,-0.082031 0.32812,-0.125 0.51562,-0.125 0.20703,0 0.39062,0.054688 0.54688,0.15625 0.15625,0.09375 0.27344,0.23047 0.35938,0.40625 z"
     id="path4508" /></g><g
   id="use116"
   transform="matrix(2.2360475,0,0,2.2360475,69.833311,243.94538)"><path
     d="m 1.5,-3.8438 v 0.85938 h 0.98438 v 0.67188 H 1.5 v 1.2812 c 0,0.13672 0.023438,0.23047 0.078125,0.28125 0.0625,0.042969 0.17578,0.0625 0.34375,0.0625 h 0.48438 V -9e-5 h -0.8125 c -0.38672,0 -0.65625,-0.078125 -0.8125,-0.23438 -0.15625,-0.156255 -0.23438,-0.42188 -0.23438,-0.79688 v -1.2812 h -0.46875 v -0.67188 h 0.46875 v -0.85938 z"
     id="path4616" /></g><g
   id="use118"
   transform="matrix(2.2360475,0,0,2.2360475,75.676728,243.94538)"><path
     d="M 3.4688,-1.8281 V 0 H 2.50005 v -1.3906 c 0,-0.25781 -0.00781,-0.4375 -0.015625,-0.53125 -0.011719,-0.10156 -0.03125,-0.17578 -0.0625,-0.21875 -0.03125,-0.0625 -0.085937,-0.10938 -0.15625,-0.14062 -0.0625,-0.039062 -0.13281,-0.0625 -0.20312,-0.0625 -0.21094,0 -0.37109,0.078125 -0.48438,0.23438 -0.10547,0.15625 -0.15625,0.37109 -0.15625,0.64062 V 8e-5 h -0.96875 v -4.1562 h 0.96875 v 1.6094 c 0.13281,-0.17578 0.28516,-0.30469 0.45312,-0.39062 0.16406,-0.082031 0.34375,-0.125 0.53125,-0.125 0.34375,0 0.60156,0.10938 0.78125,0.32812 0.1875,0.21094 0.28125,0.51172 0.28125,0.90625 z"
     id="path4504" /></g><g
   id="use120"
   transform="matrix(2.2360475,0,0,2.2360475,84.376353,243.94538)"><path
     d="m 3.4375,-1.5 v 0.26562 H 1.2031 c 0.03125,0.23047 0.11328,0.40234 0.25,0.51562 0.13281,0.10547 0.32812,0.15625 0.57812,0.15625 0.20703,0 0.41406,-0.023438 0.625,-0.078125 0.20703,-0.0625 0.42188,-0.15625 0.64062,-0.28125 v 0.73438 c -0.21875,0.09375 -0.44531,0.16406 -0.67188,0.20312 -0.23047,0.039062 -0.45312,0.0625 -0.67188,0.0625 -0.54297,0 -0.96484,-0.13281 -1.2656,-0.40625 -0.30469,-0.28125 -0.45312,-0.67188 -0.45312,-1.1719 0,-0.47656 0.14453,-0.85938 0.4375,-1.1406 0.30078,-0.28125 0.70703,-0.42188 1.2188,-0.42188 0.46875,0 0.84375,0.14062 1.125,0.42188 0.28125,0.28126 0.42188,0.66406 0.42188,1.1406 z M 2.46875,-1.82812 C 2.46875,-2.0039 2.410156,-2.14453 2.29687,-2.25 2.1914,-2.36328 2.05468,-2.42188 1.89062,-2.42188 c -0.1875,0 -0.33984,0.054687 -0.45312,0.15625 -0.11719,0.10547 -0.1875,0.25 -0.21875,0.4375 z"
     id="path4604" /></g><g
   id="use122"
   transform="matrix(2.2360475,0,0,2.2360475,96.927923,243.94538)"><path
     d="M 0.5,-3.9844 H 1.6562 L 3.0937,-1.25 V -3.9844 H 4.07808 V 0 H 2.92188 L 1.48438,-2.7344 V 0 H 0.5 Z"
     id="path4500" /></g><g
   id="use124"
   transform="matrix(2.2360475,0,0,2.2360475,107.16482,243.94538)"><path
     d="m 1.875,-2.375 c -0.21094,0 -0.37109,0.078125 -0.48438,0.23438 -0.10547,0.14844 -0.15625,0.35938 -0.15625,0.64062 0,0.29297 0.050781,0.51562 0.15625,0.67188 0.11328,0.14844 0.27344,0.21875 0.48438,0.21875 0.20703,0 0.36719,-0.070313 0.48438,-0.21875 C 2.47266,-0.98437 2.53126,-1.20703 2.53126,-1.5 2.53126,-1.78125 2.472666,-1.99219 2.35938,-2.14062 2.24219,-2.29687 2.08204,-2.375 1.875,-2.375 Z m 0,-0.6875 c 0.51953,0 0.92188,0.14062 1.2031,0.42188 0.28906,0.27344 0.4375,0.65234 0.4375,1.1406 0,0.5 -0.14844,0.89062 -0.4375,1.1719 C 2.79685,-0.05468 2.39451,0.07813 1.875,0.07813 1.36328,0.07813 0.96094,-0.05468 0.6719,-0.32812 0.37893,-0.60937 0.2344,-1 0.2344,-1.50002 c 0,-0.48828 0.14453,-0.86719 0.4375,-1.1406 C 0.96096,-2.92187 1.36331,-3.0625 1.875,-3.0625 Z"
     id="path4556" /></g><g
   id="use126"
   transform="matrix(2.2360475,0,0,2.2360475,115.56746,243.94538)"><path
     d="m 0.42188,-1.1719 v -1.8125 h 0.96875 v 0.29688 0.60938 0.48438 c 0,0.24219 0.00391,0.41797 0.015625,0.53125 0.00781,0.10547 0.03125,0.17969 0.0625,0.21875 0.039062,0.0625 0.09375,0.11719 0.15625,0.15625 0.0625,0.03125 0.13281,0.046875 0.21875,0.046875 0.19531,0 0.35156,-0.078125 0.46875,-0.23438 0.11328,-0.15625 0.17188,-0.36719 0.17188,-0.64062 v -1.4688 h 0.95312 v 2.9844 h -0.95312 v -0.4375 c -0.14844,0.17969 -0.30469,0.30859 -0.46875,0.39062 -0.15625,0.082031 -0.33594,0.125 -0.53125,0.125 -0.34375,0 -0.60938,-0.10156 -0.79688,-0.3125 -0.17969,-0.21875 -0.26562,-0.53125 -0.26562,-0.9375 z"
     id="path4496" /></g><g
   id="use128"
   transform="matrix(2.2360475,0,0,2.2360475,124.27584,243.94538)"><path
     d="M 3.4688,-1.8281 V 0 H 2.50005 v -1.3906 c 0,-0.25781 -0.00781,-0.4375 -0.015625,-0.53125 -0.011719,-0.10156 -0.03125,-0.17578 -0.0625,-0.21875 -0.03125,-0.0625 -0.085937,-0.10938 -0.15625,-0.14062 -0.0625,-0.039062 -0.13281,-0.0625 -0.20312,-0.0625 -0.21094,0 -0.37109,0.078125 -0.48438,0.23438 -0.10547,0.15625 -0.15625,0.37109 -0.15625,0.64062 V 8e-5 h -0.96875 v -2.9844 h 0.96875 v 0.4375 c 0.13281,-0.17578 0.28516,-0.30469 0.45312,-0.39062 0.16406,-0.082031 0.34375,-0.125 0.53125,-0.125 0.34375,0 0.60156,0.10938 0.78125,0.32812 0.1875,0.21094 0.28125,0.51172 0.28125,0.90625 z"
     id="path4524" /></g><g
   id="use130"
   transform="matrix(2.2360475,0,0,2.2360475,137.23791,243.94538)"><path
     d="m 0.5,-3.9844 h 1.7031 c 0.50781,0 0.89844,0.11719 1.1719,0.34375 0.26953,0.21875 0.40625,0.53906 0.40625,0.95312 0,0.41797 -0.13672,0.74219 -0.40625,0.96875 -0.27344,0.21875 -0.66406,0.32812 -1.1719,0.32812 H 1.53122 V -6e-5 h -1.0312 z m 1.0312,0.75 v 1.1094 h 0.5625 c 0.19531,0 0.34766,-0.046875 0.45312,-0.14062 C 2.6601,-2.36718 2.7187,-2.50781 2.7187,-2.6875 2.7187,-2.86328 2.660106,-3 2.54682,-3.09375 2.44135,-3.1875 2.28901,-3.23437 2.0937,-3.23437 Z"
     id="path4488" /></g><g
   id="use132"
   transform="matrix(2.2360475,0,0,2.2360475,146.19957,243.94538)"><path
     d="M 2.6875,-2.1719 C 2.601562,-2.210963 2.51953,-2.242213 2.4375,-2.26565 2.351562,-2.285181 2.26953,-2.2969 2.1875,-2.2969 c -0.25,0 -0.44531,0.085937 -0.57812,0.25 -0.125,0.15625 -0.1875,0.38281 -0.1875,0.67188 V -2e-5 H 0.45313 v -2.9844 h 0.96875 v 0.48438 c 0.11328,-0.19531 0.25,-0.33594 0.40625,-0.42188 0.16406,-0.09375 0.35938,-0.14062 0.57812,-0.14062 h 0.10938 c 0.039063,0 0.09375,0.00781 0.15625,0.015625 z"
     id="path4572" /></g><g
   id="use134"
   transform="matrix(2.2360475,0,0,2.2360475,152.22643,243.94538)"><path
     d="m 1.875,-2.375 c -0.21094,0 -0.37109,0.078125 -0.48438,0.23438 -0.10547,0.14844 -0.15625,0.35938 -0.15625,0.64062 0,0.29297 0.050781,0.51562 0.15625,0.67188 0.11328,0.14844 0.27344,0.21875 0.48438,0.21875 0.20703,0 0.36719,-0.070313 0.48438,-0.21875 C 2.47266,-0.98437 2.53126,-1.20703 2.53126,-1.5 2.53126,-1.78125 2.472666,-1.99219 2.35938,-2.14062 2.24219,-2.29687 2.08204,-2.375 1.875,-2.375 Z m 0,-0.6875 c 0.51953,0 0.92188,0.14062 1.2031,0.42188 0.28906,0.27344 0.4375,0.65234 0.4375,1.1406 0,0.5 -0.14844,0.89062 -0.4375,1.1719 C 2.79685,-0.05468 2.39451,0.07813 1.875,0.07813 1.36328,0.07813 0.96094,-0.05468 0.6719,-0.32812 0.37893,-0.60937 0.2344,-1 0.2344,-1.50002 c 0,-0.48828 0.14453,-0.86719 0.4375,-1.1406 C 0.96096,-2.92187 1.36331,-3.0625 1.875,-3.0625 Z"
     id="path4560" /></g><g
   id="use136"
   transform="matrix(2.2360475,0,0,2.2360475,160.62907,243.94538)"><path
     d="m 0.45312,-2.9844 h 0.96875 v 2.9375 c 0,0.39453 -0.10156,0.69531 -0.29688,0.90625 C 0.93749,1.0781 0.66015,1.18747 0.29687,1.18747 H -0.18751 V 0.54685 h 0.17188 c 0.17578,0 0.29688,-0.042969 0.35938,-0.125 C 0.414062,0.347631 0.45313,0.19138 0.45313,-0.0469 Z m 0,-1.1719 h 0.96875 v 0.78125 H 0.45312 Z"
     id="path4492" /></g><g
   id="use138"
   transform="matrix(2.2360475,0,0,2.2360475,164.82166,243.94538)"><path
     d="m 3.4375,-1.5 v 0.26562 H 1.2031 c 0.03125,0.23047 0.11328,0.40234 0.25,0.51562 0.13281,0.10547 0.32812,0.15625 0.57812,0.15625 0.20703,0 0.41406,-0.023438 0.625,-0.078125 0.20703,-0.0625 0.42188,-0.15625 0.64062,-0.28125 v 0.73438 c -0.21875,0.09375 -0.44531,0.16406 -0.67188,0.20312 -0.23047,0.039062 -0.45312,0.0625 -0.67188,0.0625 -0.54297,0 -0.96484,-0.13281 -1.2656,-0.40625 -0.30469,-0.28125 -0.45312,-0.67188 -0.45312,-1.1719 0,-0.47656 0.14453,-0.85938 0.4375,-1.1406 0.30078,-0.28125 0.70703,-0.42188 1.2188,-0.42188 0.46875,0 0.84375,0.14062 1.125,0.42188 0.28125,0.28126 0.42188,0.66406 0.42188,1.1406 z M 2.46875,-1.82812 C 2.46875,-2.0039 2.410156,-2.14453 2.29687,-2.25 2.1914,-2.36328 2.05468,-2.42188 1.89062,-2.42188 c -0.1875,0 -0.33984,0.054687 -0.45312,0.15625 -0.11719,0.10547 -0.1875,0.25 -0.21875,0.4375 z"
     id="path4608" /></g><g
   id="use140"
   transform="matrix(2.2360475,0,0,2.2360475,173.11075,243.94538)"><path
     d="m 2.875,-2.8906 v 0.76562 C 2.75,-2.207011 2.61719,-2.26951 2.48438,-2.31248 2.34766,-2.351542 2.21094,-2.37498 2.07813,-2.37498 c -0.27344,0 -0.48047,0.078125 -0.625,0.23438 -0.14844,0.15625 -0.21875,0.37109 -0.21875,0.64062 0,0.28125 0.070313,0.5 0.21875,0.65625 0.14453,0.15625 0.35156,0.23438 0.625,0.23438 0.14453,0 0.28516,-0.019531 0.42188,-0.0625 0.13281,-0.039063 0.25781,-0.10938 0.375,-0.20312 v 0.78125 c -0.14844,0.0625 -0.29688,0.10156 -0.45312,0.125 -0.15625,0.03125 -0.3125,0.046875 -0.46875,0.046875 -0.54297,0 -0.96484,-0.13281 -1.2656,-0.40625 -0.30469,-0.28125 -0.45312,-0.67188 -0.45312,-1.1719 0,-0.48828 0.14844,-0.86719 0.45312,-1.1406 0.30078,-0.28125 0.72266,-0.42188 1.2656,-0.42188 0.15625,0 0.3125,0.015625 0.46875,0.046875 0.15625,0.023437 0.30469,0.0625 0.45312,0.125 z"
     id="path4532" /></g><g
   id="use142"
   transform="matrix(2.2360475,0,0,2.2360475,180.36045,243.94538)"><path
     d="m 1.5,-3.8438 v 0.85938 h 0.98438 v 0.67188 H 1.5 v 1.2812 c 0,0.13672 0.023438,0.23047 0.078125,0.28125 0.0625,0.042969 0.17578,0.0625 0.34375,0.0625 h 0.48438 V -9e-5 h -0.8125 c -0.38672,0 -0.65625,-0.078125 -0.8125,-0.23438 -0.15625,-0.156255 -0.23438,-0.42188 -0.23438,-0.79688 v -1.2812 h -0.46875 v -0.67188 h 0.46875 v -0.85938 z"
     id="path4620" /></g></svg>
