<?xml version="1.0" encoding="UTF-8" standalone="no"?>
<svg
   width="200"
   height="200"
   viewBox="0 0 200 200"
   version="1.1"
   xml:space="preserve"
   style="fill-rule:evenodd;clip-rule:evenodd;stroke-linejoin:round;stroke-miterlimit:2;"
   id="svg40"
   sodipodi:docname="forgetting.svg"
   inkscape:version="1.1.2 (b8e25be833, 2022-02-05)"
   xmlns:inkscape="http://www.inkscape.org/namespaces/inkscape"
   xmlns:sodipodi="http://sodipodi.sourceforge.net/DTD/sodipodi-0.dtd"
   xmlns="http://www.w3.org/2000/svg"
   xmlns:svg="http://www.w3.org/2000/svg"><defs
   id="defs44">
        
        
        
        
        
    </defs><sodipodi:namedview
   id="namedview42"
   pagecolor="#ffffff"
   bordercolor="#666666"
   borderopacity="1.0"
   inkscape:pageshadow="2"
   inkscape:pageopacity="0.0"
   inkscape:pagecheckerboard="0"
   showgrid="false"
   inkscape:zoom="0.77163028"
   inkscape:cx="-73.221596"
   inkscape:cy="383.6034"
   inkscape:window-width="2560"
   inkscape:window-height="1377"
   inkscape:window-x="-8"
   inkscape:window-y="-8"
   inkscape:window-maximized="1"
   inkscape:current-layer="svg40" />
    <path
   id="rect5322"
   d="M 200,7.5 C 200,3.36 196.64,0 192.5,0 H 7.5 C 3.36,0 0,3.36 0,7.5 v 185 c 0,4.14 3.36,7.5 7.5,7.5 h 185 c 4.14,0 7.5,-3.36 7.5,-7.5 z"
   style="fill:#222222;stroke-width:2" /><path
   id="rect5324"
   d="m 190,15 c 0,-2.76 -2.24,-5 -5,-5 H 15 c -2.76,0 -5,2.24 -5,5 v 170 c 0,2.76 2.24,5 5,5 h 170 c 2.76,0 5,-2.24 5,-5 z"
   style="fill:#8300e6;stroke-width:2" /><path
   id="path5326"
   d="m 5.5,140 v 50 c 0,11.634 9.366,2.5 21,2.5 h 147 c 11.634,0 21,9.134 21,-2.5 v -50 z"
   style="fill:#222222;fill-rule:nonzero;stroke-width:2" />
<text
   xml:space="preserve"
   style="font-style:normal;font-weight:normal;font-size:40px;line-height:1.25;font-family:sans-serif;fill:#ffffff;fill-opacity:1;stroke:none"
   x="2.8545256"
   y="181.67239"
   id="text2305"><tspan
     sodipodi:role="line"
     id="tspan2303"
     x="2.8545256"
     y="181.67239">Forgetting</tspan></text><g
   id="g10"
   transform="matrix(0.23249459,0,0,0.23249459,15.475725,9.9867813)"><path
     d="m 472.5,297.5 h -245 c -4.6406,0 -9.0938,1.8438 -12.375,5.125 -3.2812,3.2812 -5.125,7.7344 -5.125,12.375 0,50.016 26.684,96.234 70,121.24 43.316,25.012 96.684,25.012 140,0 43.316,-25.008 70,-71.227 70,-121.24 0,-4.6406 -1.8438,-9.0938 -5.125,-12.375 -3.2812,-3.2812 -7.7344,-5.125 -12.375,-5.125 z M 350,420 c -24.809,-0.0312 -48.805,-8.8281 -67.754,-24.84 -18.945,-16.012 -31.625,-38.207 -35.793,-62.66 h 207.09 c -4.168,24.453 -16.848,46.648 -35.793,62.66 -18.949,16.012 -42.945,24.809 -67.754,24.84 z"
     id="path2" /><path
     d="m 350,35 c -64.977,0 -127.29,25.812 -173.24,71.758 -45.945,45.949 -71.758,108.27 -71.758,173.24 0,64.97 25.812,127.29 71.758,173.24 45.949,45.945 108.27,71.758 173.24,71.758 64.97,0 127.29,-25.812 173.24,-71.758 45.945,-45.949 71.758,-108.27 71.758,-173.24 -0.0703,-64.957 -25.902,-127.23 -71.836,-173.16 -45.93,-45.934 -108.21,-71.766 -173.16,-71.836 z m 0,455 c -55.695,0 -109.11,-22.125 -148.49,-61.508 -39.383,-39.383 -61.508,-92.797 -61.508,-148.49 0,-55.693 22.125,-109.11 61.508,-148.49 39.383,-39.383 92.797,-61.508 148.49,-61.508 55.693,0 109.11,22.125 148.49,61.508 39.383,39.383 61.508,92.797 61.508,148.49 -0.0586,55.676 -22.203,109.05 -61.574,148.43 -39.371,39.371 -92.75,61.516 -148.43,61.574 z"
     id="path4" /><path
     d="m 260.23,213.73 h 8.2773 c 7.1211,0 11.496,3.9883 11.496,6.1602 -0.23047,1.3008 -0.98047,2.4531 -2.082,3.1875 -2.7148,2.0195 -6.0312,3.0742 -9.4141,2.9922 h -5.6523 c -4.4141,0.0977 -8.7305,-1.2969 -12.25,-3.957 -4.8516,-3.8828 -11.395,-4.9023 -17.195,-2.6836 -5.8008,2.2227 -9.9922,7.3516 -11.008,13.48 -1.0156,6.1289 1.2891,12.336 6.0625,16.312 6.75,5.3906 14.719,9.0469 23.207,10.641 v 2.6406 c 0,6.2539 3.3359,12.031 8.75,15.156 5.4141,3.125 12.086,3.125 17.5,0 5.4141,-3.125 8.75,-8.9023 8.75,-15.156 v -4.7773 c 4.8516,-1.7617 9.3828,-4.3086 13.406,-7.543 9.2773,-7.3359 14.762,-18.465 14.926,-30.293 -0.76562,-11.602 -6.0781,-22.434 -14.785,-30.141 -8.707,-7.707 -20.102,-11.668 -31.711,-11.02 h -8.2773 c -7.1211,0 -11.496,-4.0078 -11.496,-6.1758 h -0.004 c 0.23438,-1.2969 0.98828,-2.4414 2.082,-3.168 2.7148,-2.0312 6.0312,-3.0859 9.418,-2.9922 h 5.6523 c 4.4062,-0.0977 8.7227,1.2891 12.25,3.9375 3.5703,3.0977 8.25,4.6211 12.961,4.2148 4.7148,-0.40234 9.0625,-2.6992 12.055,-6.3594 2.9961,-3.6641 4.3789,-8.3828 3.8359,-13.082 -0.54297,-4.6992 -2.9648,-8.9805 -6.7148,-11.863 -4.1172,-3.2812 -8.7148,-5.9062 -13.633,-7.7891 v -5.4258 c 0,-6.25 -3.3359,-12.027 -8.75,-15.152 -5.4141,-3.1289 -12.086,-3.1289 -17.5,0 -5.4141,3.125 -8.75,8.9023 -8.75,15.152 v 2.0664 c -8.4219,1.3281 -16.352,4.8398 -22.996,10.184 -9.2773,7.332 -14.762,18.453 -14.926,30.277 0.76172,11.609 6.0742,22.445 14.785,30.156 8.7109,7.7109 20.113,11.672 31.73,11.02 z"
     id="path6" /><path
     d="m 414,213.73 h 8.2773 c 7.1211,0 11.496,3.9883 11.496,6.1602 h 0.004 c -0.23047,1.3008 -0.98438,2.4531 -2.082,3.1875 -2.7148,2.0195 -6.0312,3.0742 -9.418,2.9922 h -5.6523 c -4.4102,0.0977 -8.7266,-1.2969 -12.25,-3.957 -3.5859,-2.9883 -8.2227,-4.418 -12.871,-3.9727 -4.6484,0.44531 -8.9258,2.7344 -11.883,6.3516 -2.9531,3.6172 -4.3398,8.2656 -3.8477,12.91 0.49219,4.6445 2.8203,8.8984 6.4648,11.82 6.7148,5.3633 14.637,9.0078 23.082,10.605 v 2.6758 c 0,6.2539 3.3359,12.031 8.75,15.156 5.4141,3.125 12.086,3.125 17.5,0 5.4141,-3.125 8.75,-8.9023 8.75,-15.156 v -4.707 c 4.9023,-1.7773 9.4805,-4.3477 13.547,-7.6133 9.2812,-7.3359 14.762,-18.461 14.926,-30.293 -0.76562,-11.602 -6.0781,-22.434 -14.785,-30.141 -8.707,-7.707 -20.102,-11.668 -31.711,-11.02 h -8.2773 c -7.1211,0 -11.496,-4.0078 -11.496,-6.1758 h -0.004 c 0.23438,-1.2969 0.98828,-2.4414 2.0859,-3.168 2.7109,-2.0312 6.0273,-3.0859 9.4141,-2.9922 h 5.6523 c 4.4102,-0.0977 8.7227,1.2891 12.25,3.9375 3.5742,3.0977 8.25,4.6211 12.961,4.2148 4.7148,-0.40234 9.0625,-2.6992 12.059,-6.3594 2.9922,-3.6641 4.375,-8.3828 3.832,-13.082 -0.54297,-4.6992 -2.9648,-8.9805 -6.7148,-11.863 -4.1484,-3.3164 -8.7891,-5.9609 -13.754,-7.8398 v -5.375 c 0,-6.25 -3.3359,-12.027 -8.75,-15.152 -5.4141,-3.1289 -12.086,-3.1289 -17.5,0 -5.4141,3.125 -8.75,8.9023 -8.75,15.152 v 2.0859 c -8.375,1.3398 -16.254,4.8438 -22.855,10.164 -9.2852,7.332 -14.773,18.449 -14.945,30.277 0.76172,11.605 6.0742,22.441 14.781,30.152 8.7068,7.711 20.105,11.672 31.715,11.023 z"
     id="path8" /></g><text
   xml:space="preserve"
   style="font-style:normal;font-weight:normal;font-size:40px;line-height:1.25;font-family:sans-serif;fill:#000000;fill-opacity:1;stroke:none"
   x="203.66553"
   y="-29.553265"
   id="text1595"><tspan
     sodipodi:role="line"
     id="tspan1593"
     x="203.66553"
     y="-29.553265">https://thenounproject.com/icon/greed-4695727/</tspan></text></svg>
