<?xml version="1.0" encoding="UTF-8" standalone="no"?>
<svg
   width="200"
   height="200"
   viewBox="0 0 200 200"
   version="1.1"
   xml:space="preserve"
   style="fill-rule:evenodd;clip-rule:evenodd;stroke-linejoin:round;stroke-miterlimit:2;"
   id="svg40"
   sodipodi:docname="forgetting.svg"
   inkscape:version="1.1.2 (b8e25be833, 2022-02-05)"
   xmlns:inkscape="http://www.inkscape.org/namespaces/inkscape"
   xmlns:sodipodi="http://sodipodi.sourceforge.net/DTD/sodipodi-0.dtd"
   xmlns="http://www.w3.org/2000/svg"
   xmlns:svg="http://www.w3.org/2000/svg"><defs
   id="defs44">
        
        
        
        
        
    </defs><sodipodi:namedview
   id="namedview42"
   pagecolor="#ffffff"
   bordercolor="#666666"
   borderopacity="1.0"
   inkscape:pageshadow="2"
   inkscape:pageopacity="0.0"
   inkscape:pagecheckerboard="0"
   showgrid="false"
   inkscape:zoom="4.365"
   inkscape:cx="145.58992"
   inkscape:cy="39.175258"
   inkscape:window-width="2560"
   inkscape:window-height="1377"
   inkscape:window-x="-8"
   inkscape:window-y="-8"
   inkscape:window-maximized="1"
   inkscape:current-layer="svg40" />
    <path
   id="rect5322"
   d="M 200,7.5 C 200,3.36 196.64,0 192.5,0 H 7.5 C 3.36,0 0,3.36 0,7.5 v 185 c 0,4.14 3.36,7.5 7.5,7.5 h 185 c 4.14,0 7.5,-3.36 7.5,-7.5 z"
   style="fill:#222222;stroke-width:2" /><path
   id="rect5324"
   d="m 190,15 c 0,-2.76 -2.24,-5 -5,-5 H 15 c -2.76,0 -5,2.24 -5,5 v 170 c 0,2.76 2.24,5 5,5 h 170 c 2.76,0 5,-2.24 5,-5 z"
   style="fill:#8300e6;stroke-width:2" /><path
   id="path5326"
   d="m 5.5,140 v 50 c 0,11.634 9.366,2.5 21,2.5 h 147 c 11.634,0 21,9.134 21,-2.5 v -50 z"
   style="fill:#222222;fill-rule:nonzero;stroke-width:2" />
<text
   xml:space="preserve"
   style="font-style:normal;font-weight:normal;font-size:40px;line-height:1.25;font-family:sans-serif;fill:#ffffff;fill-opacity:1;stroke:none"
   x="-1.1454746"
   y="181.67239"
   id="text2305"><tspan
     sodipodi:role="line"
     id="tspan2303"
     x="-1.1454746"
     y="181.67239">forgetting</tspan></text><g
   id="g3310"
   transform="matrix(0.2071411,0,0,0.2071411,-19.493117,85.464734)"><path
     d="m 399.44415,94.476937 c 0,4.5364 -3.67707,8.213603 -8.2136,8.213603 -4.53654,0 -8.2136,-3.67707 -8.2136,-8.213603 0,-4.536533 3.67706,-8.2136 8.2136,-8.2136 4.53653,0 8.2136,3.677067 8.2136,8.2136"
     id="path70"
     style="stroke-width:1.33333" /><path
     d="m 779.49747,86.263604 c 0,4.536399 -3.67707,8.213599 -8.2136,8.213599 -4.5364,0 -8.2136,-3.677066 -8.2136,-8.213599 0,-4.536534 3.67707,-8.2136 8.2136,-8.2136 4.5364,0 8.2136,3.677066 8.2136,8.2136"
     id="path72"
     style="stroke-width:1.33333" /><path
     d="m 686.16414,-182.53639 c 6.7188,-13.43733 11.19787,-28.37467 11.19787,-44.052 0,-57.49466 -52.26534,-104.53066 -116.47867,-104.53066 -64.21333,0 -116.47866,47.04133 -116.47866,104.53066 0,15.68267 3.7344,30.61467 11.19786,44.052 -137.38666,29.864 -231.46666,116.478664 -231.46666,217.279995 0,64.213332 37.33334,123.947995 106.02667,167.253325 3.7344,2.2396 7.4688,3.7344 11.94786,3.7344 2.2396,0 3.7344,0 5.974,-0.74478 2.9844,-0.74479 5.974,-2.2396 8.2136,-4.4792 8.9584,11.19786 24.64,23.14533 50.02667,32.85466 29.864,11.19787 42.56266,14.932 53.76,14.932 13.43733,0 21.65066,-5.974 26.88,-11.19786 5.974,8.2136 19.412,13.43733 35.83866,13.43733 22.40134,0 38.828,-10.45307 38.828,-23.896 v -8.2136 c 6.7188,3.7344 15.68267,6.7188 26.136,6.7188 11.94787,0 22.40133,-2.9844 29.12,-8.2136 3.7344,5.2292 8.9584,8.9584 14.932,11.94787 0.74479,0.74478 0.74479,1.4948 1.4948,2.2396 2.9844,4.4792 11.94787,17.172 31.36,17.172 11.19787,0 23.896,-3.7344 53.76,-14.932 29.12,-11.19787 44.80266,-26.136 53.76,-38.07867 2.2396,2.2396 5.2292,3.7344 8.2136,4.4792 2.2396,0.74479 4.4792,0.74479 6.7188,0.74479 4.4792,0 8.9584,-1.4948 12.69266,-3.7344 C 883.28853,153.4608 919.12587,95.964803 919.12587,34.740805 918.38108,-65.311193 825.0472,-152.67252 686.16587,-182.53919 Z M 580.88281,-286.32305 c 39.57333,0 71.68266,26.88 71.68266,59.73466 0,32.85467 -32.104,59.73467 -71.68266,59.73467 -39.57333,0 -71.68267,-26.88 -71.68267,-59.73467 0.005,-32.85466 32.10934,-59.73466 71.68267,-59.73466 z M 355.38948,150.47694 c -11.94787,-8.9584 -21.65067,-18.66667 -30.61467,-28.37467 12.69267,-14.932 46.292,-47.041333 87.36,-45.546666 2.2396,3.7344 3.7344,8.2136 6.7188,11.947866 -19.412,11.197867 -44.052,31.36 -63.464,61.97333 z m 153.81333,49.28133 c -2.9844,5.974 -8.2136,6.7188 -12.69267,6.7188 -2.2396,0 -3.7344,0 -5.2292,-0.74479 1.4948,0.74479 4.4792,2.9844 0,10.45307 -2.9844,4.4792 -5.2292,6.7188 -11.19786,6.7188 -7.4688,0 -19.412,-3.7344 -44.80267,-13.43734 -27.62533,-10.45306 -39.57333,-24.64 -44.80266,-32.85466 17.172,-26.136 38.07866,-43.30667 53.016,-52.26533 1.49479,2.2396 5.97399,6.7188 16.42666,12.69266 8.9584,5.2292 25.38533,11.19787 38.07867,17.92134 5.974,2.9844 11.19786,5.974 14.932,9.70826 3.7344,2.9844 5.974,6.7188 3.7344,9.70827 -3.7344,8.2136 -10.45307,8.9584 -13.43734,8.9584 h -1.4948 c 0,-0.005 11.94787,6.7136 7.4688,16.42133 z M 529.36414,79.544937 c 9.70827,0 17.92134,-2.2396 23.896,-5.2292 v 5.974 c -4.4792,3.7344 -13.43733,6.7188 -23.896,6.7188 -10.45306,0 -19.412,-2.9844 -23.896,-6.7188 v -5.974 c 5.974,2.9896 14.188,5.2292 23.896,5.2292 z m -23.896,-22.401333 c 0,-2.9844 8.9584,-8.958399 23.896,-8.958399 14.932,0 23.896,5.973999 23.896,8.958399 0,2.9844 -8.9584,9.708267 -23.896,9.708267 -14.93733,0 -23.896,-5.974 -23.896,-9.708267 z m 23.896,35.838666 c 9.70827,0 17.92134,-2.2396 23.896,-5.974 v 8.2136 c -4.4792,3.7344 -13.43733,6.7188 -23.896,6.7188 -10.45306,0 -19.412,-2.9844 -23.896,-6.7188 v -8.2136 c 5.974,3.7344 14.188,5.974 23.896,5.974 z m 0,14.932 c 9.70827,0 17.92134,-2.2396 23.896,-5.974 v 8.2136 c -4.4792,3.7344 -13.43733,6.7188 -23.896,6.7188 -10.45306,0 -19.412,-2.9844 -23.896,-6.7188 v -8.2136 c 5.974,3.7344 14.188,5.974 23.896,5.974 z m 0,14.188 c 9.70827,0 17.92134,-2.2396 23.896,-5.974 v 8.2136 c -4.4792,3.7344 -13.43733,6.7188 -23.896,6.7188 -10.45306,0 -19.412,-2.9844 -23.896,-6.7188 v -8.2136 c 5.974,3.7344 14.188,5.974 23.896,5.974 z m 11.19787,38.08267 c -1.4948,-2.9844 -2.9844,-5.974 -5.2292,-8.9584 7.4688,-0.74479 13.43733,-2.2396 17.92133,-5.2292 v 8.2136 c -2.9844,2.9844 -7.4636,5.224 -12.69266,5.974 z m 12.69267,0.74478 v 4.4792 c 0,2.2396 -3.7344,5.2292 -10.45307,7.4688 0,-2.2396 0,-5.2292 -0.74479,-7.4688 4.4792,-0.74479 8.2136,-2.2396 11.19787,-4.4792 z m -22.40134,-14.188 c -5.2292,-4.4792 -11.19786,-8.2136 -17.92133,-11.94786 4.4792,1.4948 10.45307,2.2396 16.42667,2.2396 9.70826,0 17.92133,-2.2396 23.896,-5.974 v 8.2136 c -4.4792,4.4844 -12.69267,7.4688 -22.40134,7.4688 z m 37.33334,79.896 c 0,3.7344 -9.70827,9.70827 -25.38534,9.70827 -15.68266,0 -25.38533,-5.974 -25.38533,-9.70827 h -0.74479 c 1.4948,-0.74479 2.9844,-1.4948 3.7344,-2.9844 5.974,2.2396 14.188,3.7344 21.65067,3.7344 9.70827,0 18.66667,-2.2396 25.38533,-5.2292 v 4.4792 z m -25.38534,-12.69267 c -4.4792,0 -8.9584,-0.74478 -11.94786,-1.4948 0,-0.74478 0.74478,-1.4948 0.74478,-2.2396 2.2396,-5.2292 3.7344,-10.45306 3.7344,-15.68266 2.2396,-0.74479 5.2292,-0.74479 7.4688,-0.74479 15.68267,0 25.38534,6.7188 25.38534,9.70827 0,3.7292 -9.70307,10.45306 -25.38534,10.45306 z m 64.95867,-2.2448 c -14.932,0 -23.896,-5.974 -23.896,-8.9584 l 0.005,-4.4792 c 5.974,3.7344 14.188,5.974 23.896,5.974 8.9584,0 16.42667,-1.4948 22.40133,-4.4792 0,1.4948 0.74479,2.9844 0.74479,4.4792 -2.2448,2.9844 -10.45307,7.4636 -23.15067,7.4636 z m 0,-37.33333 c 5.2292,0 9.70826,-0.74479 14.188,-1.4948 0,2.9844 0.74478,5.974 1.4948,8.9584 -4.4792,1.4948 -9.70827,2.2396 -15.68267,2.2396 -10.45307,0 -19.412,-2.9844 -23.896,-6.7188 l 0.005,-8.95307 c 5.974,3.7292 14.932,5.9688 23.89067,5.9688 z m -23.89067,-11.94266 v -8.2136 c 5.974,3.7344 14.188,5.974 23.896,5.974 6.7188,0 12.69267,-0.74479 17.92133,-2.9844 -0.74478,1.4948 -1.4948,2.9844 -2.2396,5.2292 -0.74478,1.49479 -1.4948,3.73439 -1.4948,5.22919 -3.7344,1.4948 -8.9584,2.2396 -14.188,2.2396 -10.4584,-0.75521 -19.416,-3.7396 -23.896,-7.47399 z m 23.89067,26.87999 c 6.7188,0 12.69266,-0.74478 17.172,-2.9844 1.4948,2.2396 2.9844,5.2292 4.4792,6.7188 -5.2292,2.9844 -12.69267,5.2292 -21.65067,5.2292 -10.45307,0 -19.412,-2.9844 -23.896,-6.7188 l 0.005,-8.2188 c 5.974,3.7344 14.932,5.974 23.89067,5.974 z m 23.896,-41.81199 c -4.4792,3.7344 -13.43734,6.7188 -23.896,6.7188 -10.45307,0 -19.412,-2.9844 -23.896,-6.7188 v -5.2292 c 5.974,2.9844 14.932,5.2292 23.896,5.2292 8.9584,0 17.172,-2.2396 23.896,-5.2292 z m -23.896,-12.69787 c -14.932,0 -23.896,-5.974 -23.896,-9.70827 0.005,-3.7292 8.9636,-8.9584 23.896,-8.9584 14.932,0 23.896,5.974 23.896,8.9584 0,2.9896 -8.9584,9.70827 -23.896,9.70827 z m 2.9896,-31.36 v -4.4792 c 5.974,3.7344 14.188,5.974 23.896,5.974 9.708,0 17.92133,-2.2396 23.896,-5.974 v 9.70827 c -3.7344,2.9844 -10.45307,5.974 -18.66667,6.7188 -5.2344,-7.4688 -15.688,-11.94787 -29.12533,-11.94787 z m 23.89066,-56.745332 c 9.70827,0 17.92134,-2.2396 23.896,-5.2292 v 5.974 c -4.4792,3.7344 -13.43733,6.7188 -23.896,6.7188 -10.45306,0 -19.412,-2.9844 -23.896,-6.7188 l 0.005,-5.974 c 6.7188,2.9896 14.932,5.2292 23.89066,5.2292 z M 610.74961,24.287725 c 0,-2.9844 8.9584,-8.9584 23.896,-8.9584 14.932,0 23.896,5.974 23.896,8.9584 0,2.9844 -8.9584,9.708267 -23.896,9.708267 -14.9376,0 -23.896,-6.7188 -23.896,-9.708267 z m 23.89066,35.093333 c 9.70827,0 17.92134,-2.2396 23.896,-5.974 v 8.2136 c -4.4792,3.734399 -13.43733,6.718799 -23.896,6.718799 -10.45306,0 -19.412,-2.9844 -23.896,-6.718799 v -8.2136 c 5.9792,3.7344 14.93734,5.974 23.896,5.974 z m 0,14.931999 c 9.70827,0 17.92134,-2.2396 23.896,-5.974 v 8.2136 c -4.4792,3.7344 -13.43733,6.7188 -23.896,6.7188 -10.45306,0 -19.412,-2.9844 -23.896,-6.7188 v -8.2136 c 5.9792,3.7344 14.93734,5.974 23.896,5.974 z m 0,14.932 c 9.70827,0 17.92134,-2.2396 23.896,-5.974 v 8.2136 c -4.4792,3.7344 -13.43733,6.7188 -23.896,6.7188 -10.45306,0 -19.412,-2.9844 -23.896,-6.7188 v -8.2136 c 5.9792,3.7344 14.93734,5.974 23.896,5.974 z m 8.9636,29.869333 c 5.974,-0.74479 11.19787,-2.2396 14.932,-5.2292 v 8.9584 c -2.9844,2.2396 -8.2136,4.4792 -14.188,5.974 h -0.74478 c 0,-0.74479 0.74478,-2.2396 0.74478,-2.9844 0.74479,-2.9844 0,-4.4792 -0.74478,-6.7188 z m 1.4896,14.932 c 5.2292,-0.74479 10.45307,-2.2396 14.188,-4.4792 v 1.4948 c -5.2292,2.2396 -9.70826,5.2292 -14.188,7.4688 z m 132.16133,35.83866 c -1.4948,4.4792 -9.70826,24.64 -47.78666,39.57334 -24.64,9.70826 -37.33333,13.43733 -44.80267,13.43733 -5.974,0 -8.2136,-2.2396 -11.19786,-6.7188 -5.2292,-7.4688 -1.4948,-9.70827 0,-10.45307 -0.74479,0 -2.9844,0.74479 -5.2292,0.74479 -4.4792,0 -9.70827,-1.4948 -12.69267,-6.7188 -4.4792,-9.70827 6.7188,-16.42667 6.7188,-16.42667 h -1.4948 c -2.9844,0 -9.70827,-0.74478 -13.43733,-8.9584 -5.974,-13.43733 40.31733,-27.62533 57.49466,-37.33333 11.94787,-7.4688 16.42667,-11.94786 17.172,-14.188 16.42667,9.70827 39.57867,24.64534 55.25467,47.04133 z m 36.588,-25.38533 c -19.412,-28.37466 -47.78666,-47.786663 -68.69333,-58.983996 3.7344,-6.7188 6.7188,-13.437333 9.70827,-20.161333 24.636,5.974 64.208,20.906666 84.36933,54.505329 -7.4688,8.9636 -15.68267,17.172 -25.38533,24.64 z m 43.30667,-50.770663 c -26.88,-36.587999 -70.932,-51.521332 -97.068,-57.494665 0,-46.291999 -35.83867,-88.103998 -93.33333,-109.759998 l -15.68267,41.811999 c 39.57334,14.932 64.21333,41.0679992 64.21333,67.947999 0,14.931999 -7.46879,27.625332 -14.93199,36.587999 l -28.37467,-3.7344 V 24.285325 c 0,-12.692666 -15.68267,-22.4013326 -36.588,-22.4013326 -20.90667,0 -36.588,9.7082666 -36.588,22.4013326 v 42.562666 h -32.104 v -8.9584 c 0,-12.692666 -15.68266,-22.401333 -36.588,-22.401333 -20.90533,0 -36.588,9.708267 -36.588,22.401333 v 14.932 l -25.38533,5.229199 c -8.9584,-8.958399 -19.412,-23.145332 -19.412,-41.067999 0,-25.385332 22.40133,-50.770665 58.984,-65.707998 l -19.40667,-42.562665 c -53.75999,22.401332 -85.86399,62.7186646 -85.86399,106.770664 0,3.734399 0,6.718799 0.74478,10.453066 -44.80266,2.9896 -79.14533,32.854666 -96.32266,50.775999 -11.94787,-20.161333 -17.92133,-41.067999 -17.92133,-62.718665 0,-82.879998 93.33333,-158.293332 221.75999,-178.453332 15.68267,10.45307 34.34933,17.92134 54.50533,20.16134 l -14.932,8.9584 24.64,13.43733 -25.38533,67.19733 32.85466,46.291999 32.85467,-46.291999 -25.38533,-67.19733 23.896,-13.43733 -14.932,-9.70827 c 20.90666,-2.9844 39.57333,-10.45307 55.25466,-22.40133 7.4688,2.9844 11.94787,4.4792 15.68267,5.2292 120.21333,24.64 203.83999,96.317327 203.83999,174.719992 -0.005,22.401332 -5.9792,42.562665 -16.432,61.229331 z"
     id="path74"
     style="stroke-width:1.33333" /></g><g
   id="use76"
   transform="matrix(1.3333333,0,0,1.3333333,204.56415,422.2636)"><path
     d="m 18.766,-1.125 c -0.96875,0.5 -1.9805,0.875 -3.0312,1.125 -1.043,0.25781 -2.1367,0.39062 -3.2812,0.39062 -3.3984,0 -6.0898,-0.94531 -8.0781,-2.8438 -1.9922,-1.9062 -2.9844,-4.4844 -2.9844,-7.7344 0,-3.2578 0.99219,-5.8359 2.9844,-7.7344 1.9883,-1.9062 4.6797,-2.8594 8.0781,-2.8594 1.1445,0 2.2383,0.13281 3.2812,0.39062 1.0508,0.25 2.0625,0.625 3.0312,1.125 v 4.2188 c -0.98047,-0.65625 -1.9453,-1.1406 -2.8906,-1.4531 -0.94922,-0.3125 -1.9492,-0.46875 -3,-0.46875 -1.875,0 -3.3516,0.60547 -4.4219,1.8125 -1.0742,1.1992 -1.6094,2.8555 -1.6094,4.9688 0,2.1055 0.53516,3.7617 1.6094,4.9688 1.0703,1.1992 2.5469,1.7969 4.4219,1.7969 1.0508,0 2.0508,-0.14844 3,-0.45312 0.94531,-0.3125 1.9102,-0.80078 2.8906,-1.4688 z"
     id="path3032" /></g><g
   id="use78"
   transform="matrix(1.3333333,0,0,1.3333333,231.96519,422.2636)"><path
     d="m 13.734,-11.141 c -0.4375,-0.19531 -0.87109,-0.34375 -1.2969,-0.4375 -0.41797,-0.10156 -0.83984,-0.15625 -1.2656,-0.15625 -1.2617,0 -2.2305,0.40625 -2.9062,1.2188 -0.67969,0.80469 -1.0156,1.9531 -1.0156,3.4531 v 7.0625 H 2.3591 v -15.312 h 4.8906 v 2.5156 c 0.625,-1 1.3438,-1.7266 2.1562,-2.1875 0.82031,-0.46875 1.8008,-0.70312 2.9375,-0.70312 0.16406,0 0.34375,0.01172 0.53125,0.03125 0.19531,0.01172 0.47656,0.03906 0.84375,0.07813 z"
     id="path3060" /></g><g
   id="use80"
   transform="matrix(1.3333333,0,0,1.3333333,250.37666,422.2636)"><path
     d="m 17.641,-7.7031 v 1.4062 H 6.188 c 0.125,1.1484 0.53906,2.0078 1.25,2.5781 0.70703,0.57422 1.7031,0.85938 2.9844,0.85938 1.0312,0 2.082,-0.14844 3.1562,-0.45312 1.082,-0.3125 2.1914,-0.77344 3.3281,-1.3906 v 3.7656 c -1.1562,0.4375 -2.3125,0.76562 -3.4688,0.98438 -1.1562,0.22656 -2.3125,0.34375 -3.4688,0.34375 -2.7734,0 -4.9297,-0.70312 -6.4688,-2.1094 -1.5312,-1.4062 -2.2969,-3.3789 -2.2969,-5.9219 0,-2.5 0.75391,-4.4609 2.2656,-5.8906 1.5078,-1.4375 3.582,-2.1562 6.2188,-2.1562 2.4062,0 4.332,0.73047 5.7812,2.1875 1.4453,1.4492 2.1719,3.3828 2.1719,5.7969 z m -5.0312,-1.625 c 0,-0.92578 -0.27344,-1.6719 -0.8125,-2.2344 -0.54297,-0.57031 -1.25,-0.85938 -2.125,-0.85938 -0.94922,0 -1.7188,0.26562 -2.3125,0.79688 -0.5937,0.53126 -0.96484,1.2969 -1.1094,2.2969 z"
     id="path3036" /></g><g
   id="use82"
   transform="matrix(1.3333333,0,0,1.3333333,275.69436,422.2636)"><path
     d="m 9.2188,-6.8906 c -1.0234,0 -1.793,0.17188 -2.3125,0.51562 -0.51172,0.34375 -0.76562,0.85547 -0.76562,1.5312 0,0.625 0.20703,1.1172 0.625,1.4688 0.41406,0.34375 0.98828,0.51562 1.7188,0.51562 0.92578,0 1.7031,-0.32812 2.3281,-0.98438 0.63281,-0.66406 0.95312,-1.4922 0.95312,-2.4844 v -0.5625 z m 7.4688,-1.8438 V 0 h -4.9219 v -2.2656 c -0.65625,0.92969 -1.3984,1.6055 -2.2188,2.0312 -0.82422,0.41406 -1.8242,0.625 -3,0.625 -1.5859,0 -2.8711,-0.45703 -3.8594,-1.375 -0.99219,-0.92578 -1.4844,-2.1289 -1.4844,-3.6094 0,-1.7891 0.61328,-3.1016 1.8438,-3.9375 1.2383,-0.84375 3.1797,-1.2656 5.8281,-1.2656 h 2.8906 v -0.39062 c 0,-0.76953 -0.30859,-1.332 -0.92188,-1.6875 -0.61719,-0.36328 -1.5703,-0.54688 -2.8594,-0.54688 -1.0547,0 -2.0312,0.10547 -2.9375,0.3125 -0.89844,0.21094 -1.7305,0.52344 -2.5,0.9375 v -3.7344 c 1.0391,-0.25 2.0859,-0.44141 3.1406,-0.57812 1.0625,-0.13281 2.125,-0.20312 3.1875,-0.20312 2.7578,0 4.75,0.54688 5.9688,1.6406 1.2266,1.0859 1.8438,2.8555 1.8438,5.3125 z"
     id="path3004" /></g><g
   id="use84"
   transform="matrix(1.3333333,0,0,1.3333333,300.88707,422.2636)"><path
     d="m 7.7031,-19.656 v 4.3438 H 12.75 v 3.5 H 7.7031 v 6.5 c 0,0.71094 0.14062,1.1875 0.42188,1.4375 0.28126,0.25 0.83594,0.375 1.6719,0.375 h 2.5156 v 3.5 h -4.1875 c -1.9375,0 -3.3125,-0.39844 -4.125,-1.2031 -0.80469,-0.8125 -1.2031,-2.1797 -1.2031,-4.1094 v -6.5 h -2.4219 v -3.5 h 2.4219 v -4.3438 z"
     id="path2984" /></g><g
   id="use86"
   transform="matrix(1.3333333,0,0,1.3333333,318.73603,422.2636)"><path
     d="m 17.641,-7.7031 v 1.4062 H 6.188 c 0.125,1.1484 0.53906,2.0078 1.25,2.5781 0.70703,0.57422 1.7031,0.85938 2.9844,0.85938 1.0312,0 2.082,-0.14844 3.1562,-0.45312 1.082,-0.3125 2.1914,-0.77344 3.3281,-1.3906 v 3.7656 c -1.1562,0.4375 -2.3125,0.76562 -3.4688,0.98438 -1.1562,0.22656 -2.3125,0.34375 -3.4688,0.34375 -2.7734,0 -4.9297,-0.70312 -6.4688,-2.1094 -1.5312,-1.4062 -2.2969,-3.3789 -2.2969,-5.9219 0,-2.5 0.75391,-4.4609 2.2656,-5.8906 1.5078,-1.4375 3.582,-2.1562 6.2188,-2.1562 2.4062,0 4.332,0.73047 5.7812,2.1875 1.4453,1.4492 2.1719,3.3828 2.1719,5.7969 z m -5.0312,-1.625 c 0,-0.92578 -0.27344,-1.6719 -0.8125,-2.2344 -0.54297,-0.57031 -1.25,-0.85938 -2.125,-0.85938 -0.94922,0 -1.7188,0.26562 -2.3125,0.79688 -0.5937,0.53126 -0.96484,1.2969 -1.1094,2.2969 z"
     id="path3040" /></g><g
   id="use88"
   transform="matrix(1.3333333,0,0,1.3333333,344.05373,422.2636)"><path
     d="m 12.766,-13.078 v -8.2031 h 4.9219 V -1e-4 H 12.766 v -2.2188 c -0.66797,0.90625 -1.4062,1.5703 -2.2188,1.9844 -0.8126,0.4141 -1.7578,0.625 -2.8281,0.625 -1.8867,0 -3.4336,-0.75 -4.6406,-2.25 -1.2109,-1.5 -1.8125,-3.4258 -1.8125,-5.7812 0,-2.3633 0.60156,-4.2969 1.8125,-5.7969 1.207,-1.5 2.7539,-2.25 4.6406,-2.25 1.0625,0 2,0.21484 2.8125,0.64062 0.82031,0.42969 1.5664,1.0859 2.2344,1.9688 z m -3.2188,9.9219 c 1.0391,0 1.8359,-0.37891 2.3906,-1.1406 0.55078,-0.76953 0.82812,-1.8828 0.82812,-3.3438 0,-1.457 -0.27734,-2.5664 -0.82812,-3.3281 -0.55469,-0.76953 -1.3516,-1.1562 -2.3906,-1.1562 -1.043,0 -1.8398,0.38672 -2.3906,1.1562 -0.55469,0.76172 -0.82812,1.8711 -0.82812,3.3281 0,1.4609 0.27344,2.5742 0.82812,3.3438 0.55078,0.76172 1.3477,1.1406 2.3906,1.1406 z"
     id="path3028" /></g><g
   id="use90"
   transform="matrix(1.3333333,0,0,1.3333333,383.77769,422.2636)"><path
     d="m 10.5,-3.1562 c 1.0508,0 1.8516,-0.37891 2.4062,-1.1406 0.55078,-0.76953 0.82812,-1.8828 0.82812,-3.3438 0,-1.457 -0.27734,-2.5664 -0.82812,-3.3281 -0.55469,-0.76953 -1.3555,-1.1562 -2.4062,-1.1562 -1.0547,0 -1.8594,0.38672 -2.4219,1.1562 -0.55469,0.77344 -0.82812,1.8828 -0.82812,3.3281 0,1.4492 0.27344,2.5586 0.82812,3.3281 0.5625,0.77344 1.3672,1.1562 2.4219,1.1562 z m -3.25,-9.9219 c 0.67578,-0.88281 1.4219,-1.5391 2.2344,-1.9688 0.82031,-0.42578 1.7656,-0.64062 2.8281,-0.64062 1.8945,0 3.4453,0.75 4.6562,2.25 1.207,1.5 1.8125,3.4336 1.8125,5.7969 0,2.3555 -0.60547,4.2812 -1.8125,5.7812 -1.2109,1.5 -2.7617,2.25 -4.6562,2.25 -1.0625,0 -2.0078,-0.21094 -2.8281,-0.625 C 8.6719,-0.6602 7.9258,-1.32032 7.25,-2.21882 V -2e-5 H 2.3594 v -21.281 H 7.25 Z"
     id="path2980" /></g><g
   id="use92"
   transform="matrix(1.3333333,0,0,1.3333333,410.50164,422.2636)"><path
     d="m 0.34375,-15.312 h 4.8906 l 4.125,10.391 3.5,-10.391 h 4.8906 l -6.4375,16.766 c -0.64844,1.6953 -1.4023,2.8828 -2.2656,3.5625 -0.86719,0.6875 -2,1.0312 -3.4062,1.0312 H 2.79685 V 2.8289 h 1.5312 c 0.83203,0 1.4375,-0.13672 1.8125,-0.40625 C 6.52336,2.16093 6.82024,1.69218 7.03117,1.01645 L 7.17179,0.59457 Z"
     id="path2976" /></g><g
   id="use94"
   transform="matrix(1.3333333,0,0,1.3333333,447.83497,422.2636)"><path
     d="m 7.8281,-16.438 v 12.453 h 1.8906 c 2.1562,0 3.8008,-0.53125 4.9375,-1.5938 1.1328,-1.0625 1.7031,-2.6133 1.7031,-4.6562 0,-2.0195 -0.57031,-3.5547 -1.7031,-4.6094 -1.125,-1.0625 -2.7734,-1.5938 -4.9375,-1.5938 z m -5.25,-3.9688 H 8.125 c 3.0938,0 5.3984,0.21875 6.9219,0.65625 1.5195,0.4375 2.8203,1.1875 3.9062,2.25 0.95703,0.91797 1.6641,1.9805 2.125,3.1875 0.46875,1.1992 0.70312,2.5586 0.70312,4.0781 0,1.543 -0.23438,2.918 -0.70312,4.125 -0.46094,1.2109 -1.168,2.2773 -2.125,3.2031 -1.0938,1.0547 -2.4062,1.8047 -3.9375,2.25 C 13.4844,-0.21935 11.1875,-6e-4 8.125,-6e-4 H 2.5781 Z"
     id="path3024" /></g><g
   id="use96"
   transform="matrix(1.3333333,0,0,1.3333333,478.82456,422.2636)"><path
     d="m 9.2188,-6.8906 c -1.0234,0 -1.793,0.17188 -2.3125,0.51562 -0.51172,0.34375 -0.76562,0.85547 -0.76562,1.5312 0,0.625 0.20703,1.1172 0.625,1.4688 0.41406,0.34375 0.98828,0.51562 1.7188,0.51562 0.92578,0 1.7031,-0.32812 2.3281,-0.98438 0.63281,-0.66406 0.95312,-1.4922 0.95312,-2.4844 v -0.5625 z m 7.4688,-1.8438 V 0 h -4.9219 v -2.2656 c -0.65625,0.92969 -1.3984,1.6055 -2.2188,2.0312 -0.82422,0.41406 -1.8242,0.625 -3,0.625 -1.5859,0 -2.8711,-0.45703 -3.8594,-1.375 -0.99219,-0.92578 -1.4844,-2.1289 -1.4844,-3.6094 0,-1.7891 0.61328,-3.1016 1.8438,-3.9375 1.2383,-0.84375 3.1797,-1.2656 5.8281,-1.2656 h 2.8906 v -0.39062 c 0,-0.76953 -0.30859,-1.332 -0.92188,-1.6875 -0.61719,-0.36328 -1.5703,-0.54688 -2.8594,-0.54688 -1.0547,0 -2.0312,0.10547 -2.9375,0.3125 -0.89844,0.21094 -1.7305,0.52344 -2.5,0.9375 v -3.7344 c 1.0391,-0.25 2.0859,-0.44141 3.1406,-0.57812 1.0625,-0.13281 2.125,-0.20312 3.1875,-0.20312 2.7578,0 4.75,0.54688 5.9688,1.6406 1.2266,1.0859 1.8438,2.8555 1.8438,5.3125 z"
     id="path3008" /></g><g
   id="use98"
   transform="matrix(1.3333333,0,0,1.3333333,504.01206,422.2636)"><path
     d="M 17.75,-9.3281 V 0 h -4.9219 v -7.1406 c 0,-1.3203 -0.03125,-2.2344 -0.09375,-2.7344 -0.0625,-0.5 -0.16797,-0.86719 -0.3125,-1.1094 -0.1875,-0.3125 -0.44922,-0.55469 -0.78125,-0.73438 -0.32422,-0.17578 -0.69531,-0.26562 -1.1094,-0.26562 -1.0234,0 -1.8242,0.39844 -2.4062,1.1875 -0.58594,0.78125 -0.875,1.8711 -0.875,3.2656 V -1e-4 H 2.3594 v -15.312 H 7.25 v 2.2344 c 0.73828,-0.88281 1.5195,-1.5391 2.3438,-1.9688 0.83203,-0.42578 1.75,-0.64062 2.75,-0.64062 1.7695,0 3.1133,0.54688 4.0312,1.6406 0.91406,1.0859 1.375,2.6562 1.375,4.7188 z"
     id="path3016" /></g><g
   id="use100"
   transform="matrix(1.3333333,0,0,1.3333333,543.59018,422.2636)"><path
     d="m 2.5781,-20.406 h 5.25 v 7.7656 h 7.7656 v -7.7656 h 5.2656 V 0 H 15.5937 V -8.6562 H 7.8281 V 0 h -5.25 z"
     id="path3012" /></g><g
   id="use102"
   transform="matrix(1.3333333,0,0,1.3333333,574.83497,422.2636)"><path
     d="m 17.641,-7.7031 v 1.4062 H 6.188 c 0.125,1.1484 0.53906,2.0078 1.25,2.5781 0.70703,0.57422 1.7031,0.85938 2.9844,0.85938 1.0312,0 2.082,-0.14844 3.1562,-0.45312 1.082,-0.3125 2.1914,-0.77344 3.3281,-1.3906 v 3.7656 c -1.1562,0.4375 -2.3125,0.76562 -3.4688,0.98438 -1.1562,0.22656 -2.3125,0.34375 -3.4688,0.34375 -2.7734,0 -4.9297,-0.70312 -6.4688,-2.1094 -1.5312,-1.4062 -2.2969,-3.3789 -2.2969,-5.9219 0,-2.5 0.75391,-4.4609 2.2656,-5.8906 1.5078,-1.4375 3.582,-2.1562 6.2188,-2.1562 2.4062,0 4.332,0.73047 5.7812,2.1875 1.4453,1.4492 2.1719,3.3828 2.1719,5.7969 z m -5.0312,-1.625 c 0,-0.92578 -0.27344,-1.6719 -0.8125,-2.2344 -0.54297,-0.57031 -1.25,-0.85938 -2.125,-0.85938 -0.94922,0 -1.7188,0.26562 -2.3125,0.79688 -0.5937,0.53126 -0.96484,1.2969 -1.1094,2.2969 z"
     id="path3044" /></g><g
   id="use104"
   transform="matrix(1.3333333,0,0,1.3333333,600.15789,422.2636)"><path
     d="m 7.7031,-19.656 v 4.3438 H 12.75 v 3.5 H 7.7031 v 6.5 c 0,0.71094 0.14062,1.1875 0.42188,1.4375 0.28126,0.25 0.83594,0.375 1.6719,0.375 h 2.5156 v 3.5 h -4.1875 c -1.9375,0 -3.3125,-0.39844 -4.125,-1.2031 -0.80469,-0.8125 -1.2031,-2.1797 -1.2031,-4.1094 v -6.5 h -2.4219 v -3.5 h 2.4219 v -4.3438 z"
     id="path2988" /></g><g
   id="use106"
   transform="matrix(1.3333333,0,0,1.3333333,618.00163,422.2636)"><path
     d="m 7.7031,-19.656 v 4.3438 H 12.75 v 3.5 H 7.7031 v 6.5 c 0,0.71094 0.14062,1.1875 0.42188,1.4375 0.28126,0.25 0.83594,0.375 1.6719,0.375 h 2.5156 v 3.5 h -4.1875 c -1.9375,0 -3.3125,-0.39844 -4.125,-1.2031 -0.80469,-0.8125 -1.2031,-2.1797 -1.2031,-4.1094 v -6.5 h -2.4219 v -3.5 h 2.4219 v -4.3438 z"
     id="path2992" /></g><g
   id="use108"
   transform="matrix(1.3333333,0,0,1.3333333,635.84539,422.2636)"><path
     d="m 17.641,-7.7031 v 1.4062 H 6.188 c 0.125,1.1484 0.53906,2.0078 1.25,2.5781 0.70703,0.57422 1.7031,0.85938 2.9844,0.85938 1.0312,0 2.082,-0.14844 3.1562,-0.45312 1.082,-0.3125 2.1914,-0.77344 3.3281,-1.3906 v 3.7656 c -1.1562,0.4375 -2.3125,0.76562 -3.4688,0.98438 -1.1562,0.22656 -2.3125,0.34375 -3.4688,0.34375 -2.7734,0 -4.9297,-0.70312 -6.4688,-2.1094 -1.5312,-1.4062 -2.2969,-3.3789 -2.2969,-5.9219 0,-2.5 0.75391,-4.4609 2.2656,-5.8906 1.5078,-1.4375 3.582,-2.1562 6.2188,-2.1562 2.4062,0 4.332,0.73047 5.7812,2.1875 1.4453,1.4492 2.1719,3.3828 2.1719,5.7969 z m -5.0312,-1.625 c 0,-0.92578 -0.27344,-1.6719 -0.8125,-2.2344 -0.54297,-0.57031 -1.25,-0.85938 -2.125,-0.85938 -0.94922,0 -1.7188,0.26562 -2.3125,0.79688 -0.5937,0.53126 -0.96484,1.2969 -1.1094,2.2969 z"
     id="path3048" /></g><g
   id="use110"
   transform="matrix(1.3333333,0,0,1.3333333,661.1683,422.2636)"><path
     d="M 2.3594,-15.312 H 7.25 V 0 H 2.3594 Z m 0,-5.9688 H 7.25 v 4 H 2.3594 Z"
     id="path2972" /></g><g
   id="use112"
   transform="matrix(1.3333333,0,0,1.3333333,673.96518,422.2636)"><path
     d="m 6.2188,-7.8281 -5.5156,-7.4844 h 5.1719 l 3.1406,4.5312 3.1719,-4.5312 h 5.1719 L 11.8439,-7.8594 17.6408,0 H 12.4533 L 9.0158,-4.8438 5.6096,0 H 0.4221 Z"
     id="path2968" /></g><g
   id="use114"
   transform="matrix(1.3333333,0,0,1.3333333,204.56415,459.59693)"><path
     d="m 12.422,-21.281 v 3.2188 H 9.7189 c -0.6875,0 -1.1719,0.125 -1.4531,0.375 -0.27344,0.25 -0.40625,0.6875 -0.40625,1.3125 v 1.0625 h 4.1875 v 3.5 H 7.85955 V -2e-4 h -4.8906 v -11.812 h -2.4375 v -3.5 h 2.4375 v -1.0625 c 0,-1.6641 0.46094,-2.8984 1.3906,-3.7031 0.92578,-0.80078 2.3672,-1.2031 4.3281,-1.2031 z"
     id="path2964" /></g><g
   id="use116"
   transform="matrix(1.3333333,0,0,1.3333333,220.80894,459.59693)"><path
     d="m 13.734,-11.141 c -0.4375,-0.19531 -0.87109,-0.34375 -1.2969,-0.4375 -0.41797,-0.10156 -0.83984,-0.15625 -1.2656,-0.15625 -1.2617,0 -2.2305,0.40625 -2.9062,1.2188 -0.67969,0.80469 -1.0156,1.9531 -1.0156,3.4531 v 7.0625 H 2.3591 v -15.312 h 4.8906 v 2.5156 c 0.625,-1 1.3438,-1.7266 2.1562,-2.1875 0.82031,-0.46875 1.8008,-0.70312 2.9375,-0.70312 0.16406,0 0.34375,0.01172 0.53125,0.03125 0.19531,0.01172 0.47656,0.03906 0.84375,0.07813 z"
     id="path3064" /></g><g
   id="use118"
   transform="matrix(1.3333333,0,0,1.3333333,239.2204,459.59693)"><path
     d="m 9.6406,-12.188 c -1.0859,0 -1.9141,0.39062 -2.4844,1.1719 -0.57422,0.78125 -0.85938,1.9062 -0.85938,3.375 0,1.4688 0.28516,2.5938 0.85938,3.375 0.57031,0.77344 1.3984,1.1562 2.4844,1.1562 1.0625,0 1.875,-0.38281 2.4375,-1.1562 0.57031,-0.78125 0.85938,-1.9062 0.85938,-3.375 0,-1.4688 -0.28906,-2.5938 -0.85938,-3.375 -0.5625,-0.78125 -1.375,-1.1719 -2.4375,-1.1719 z m 0,-3.5 c 2.6328,0 4.6914,0.71484 6.1719,2.1406 1.4766,1.418 2.2188,3.3867 2.2188,5.9062 0,2.5117 -0.74219,4.4805 -2.2188,5.9062 C 14.332,-0.317 12.2734,0.39 9.6406,0.39 6.9922,0.39 4.9258,-0.31703 3.4375,-1.735 1.9453,-3.1608 1.2031,-5.1295 1.2031,-7.6412 c 0,-2.5195 0.74219,-4.4883 2.2344,-5.9062 1.4883,-1.4258 3.5547,-2.1406 6.2031,-2.1406 z"
     id="path2952" /></g><g
   id="use120"
   transform="matrix(1.3333333,0,0,1.3333333,264.86623,459.59693)"><path
     d="m 16.547,-12.766 c 0.61328,-0.94531 1.3477,-1.6719 2.2031,-2.1719 0.85156,-0.5 1.7891,-0.75 2.8125,-0.75 1.7578,0 3.0977,0.54688 4.0156,1.6406 0.92578,1.0859 1.3906,2.6562 1.3906,4.7188 V -4e-4 h -4.9219 v -7.9844 -0.35938 c 0.0078,-0.13281 0.01563,-0.32031 0.01563,-0.5625 0,-1.082 -0.16406,-1.8633 -0.48438,-2.3438 -0.3125,-0.48828 -0.82422,-0.73438 -1.5312,-0.73438 -0.92969,0 -1.6484,0.38672 -2.1562,1.1562 -0.51172,0.76172 -0.77344,1.8672 -0.78125,3.3125 v 7.5156 h -4.9219 v -7.9844 c 0,-1.6953 -0.14844,-2.7852 -0.4375,-3.2656 -0.29297,-0.48828 -0.8125,-0.73438 -1.5625,-0.73438 -0.9375,0 -1.6641,0.38672 -2.1719,1.1562 -0.51172,0.76172 -0.76562,1.8594 -0.76562,3.2969 v 7.5312 h -4.9219 v -15.312 h 4.9219 v 2.2344 c 0.60156,-0.86328 1.2891,-1.5156 2.0625,-1.9531 0.78125,-0.4375 1.6406,-0.65625 2.5781,-0.65625 1.0625,0 2,0.25781 2.8125,0.76562 0.8125,0.51172 1.4258,1.2305 1.8438,2.1562 z"
     id="path2924" /></g><g
   id="use122"
   transform="matrix(1.3333333,0,0,1.3333333,316.76727,459.59693)"><path
     d="m 7.7031,-19.656 v 4.3438 H 12.75 v 3.5 H 7.7031 v 6.5 c 0,0.71094 0.14062,1.1875 0.42188,1.4375 0.28126,0.25 0.83594,0.375 1.6719,0.375 h 2.5156 v 3.5 h -4.1875 c -1.9375,0 -3.3125,-0.39844 -4.125,-1.2031 -0.80469,-0.8125 -1.2031,-2.1797 -1.2031,-4.1094 v -6.5 h -2.4219 v -3.5 h 2.4219 v -4.3438 z"
     id="path2996" /></g><g
   id="use124"
   transform="matrix(1.3333333,0,0,1.3333333,334.61103,459.59693)"><path
     d="M 17.75,-9.3281 V 0 h -4.9219 v -7.1094 c 0,-1.3438 -0.03125,-2.2656 -0.09375,-2.7656 -0.0625,-0.5 -0.16797,-0.86719 -0.3125,-1.1094 -0.1875,-0.3125 -0.44922,-0.55469 -0.78125,-0.73438 -0.32422,-0.17578 -0.69531,-0.26562 -1.1094,-0.26562 -1.0234,0 -1.8242,0.39844 -2.4062,1.1875 -0.58594,0.78125 -0.875,1.8711 -0.875,3.2656 V -1e-4 H 2.3594 v -21.281 H 7.25 v 8.2031 c 0.73828,-0.88281 1.5195,-1.5391 2.3438,-1.9688 0.83203,-0.42578 1.75,-0.64062 2.75,-0.64062 1.7695,0 3.1133,0.54688 4.0312,1.6406 0.91406,1.0859 1.375,2.6562 1.375,4.7188 z"
     id="path2948" /></g><g
   id="use126"
   transform="matrix(1.3333333,0,0,1.3333333,361.18915,459.59693)"><path
     d="m 17.641,-7.7031 v 1.4062 H 6.188 c 0.125,1.1484 0.53906,2.0078 1.25,2.5781 0.70703,0.57422 1.7031,0.85938 2.9844,0.85938 1.0312,0 2.082,-0.14844 3.1562,-0.45312 1.082,-0.3125 2.1914,-0.77344 3.3281,-1.3906 v 3.7656 c -1.1562,0.4375 -2.3125,0.76562 -3.4688,0.98438 -1.1562,0.22656 -2.3125,0.34375 -3.4688,0.34375 -2.7734,0 -4.9297,-0.70312 -6.4688,-2.1094 -1.5312,-1.4062 -2.2969,-3.3789 -2.2969,-5.9219 0,-2.5 0.75391,-4.4609 2.2656,-5.8906 1.5078,-1.4375 3.582,-2.1562 6.2188,-2.1562 2.4062,0 4.332,0.73047 5.7812,2.1875 1.4453,1.4492 2.1719,3.3828 2.1719,5.7969 z m -5.0312,-1.625 c 0,-0.92578 -0.27344,-1.6719 -0.8125,-2.2344 -0.54297,-0.57031 -1.25,-0.85938 -2.125,-0.85938 -0.94922,0 -1.7188,0.26562 -2.3125,0.79688 -0.5937,0.53126 -0.96484,1.2969 -1.1094,2.2969 z"
     id="path3052" /></g><g
   id="use128"
   transform="matrix(1.3333333,0,0,1.3333333,399.50685,459.59693)"><path
     d="m 2.5781,-20.406 h 5.875 l 7.4219,14 v -14 h 4.9844 V 0 h -5.875 L 7.5625,-14 V 0 H 2.5781 Z"
     id="path2940" /></g><g
   id="use130"
   transform="matrix(1.3333333,0,0,1.3333333,430.75164,459.59693)"><path
     d="m 9.6406,-12.188 c -1.0859,0 -1.9141,0.39062 -2.4844,1.1719 -0.57422,0.78125 -0.85938,1.9062 -0.85938,3.375 0,1.4688 0.28516,2.5938 0.85938,3.375 0.57031,0.77344 1.3984,1.1562 2.4844,1.1562 1.0625,0 1.875,-0.38281 2.4375,-1.1562 0.57031,-0.78125 0.85938,-1.9062 0.85938,-3.375 0,-1.4688 -0.28906,-2.5938 -0.85938,-3.375 -0.5625,-0.78125 -1.375,-1.1719 -2.4375,-1.1719 z m 0,-3.5 c 2.6328,0 4.6914,0.71484 6.1719,2.1406 1.4766,1.418 2.2188,3.3867 2.2188,5.9062 0,2.5117 -0.74219,4.4805 -2.2188,5.9062 C 14.332,-0.317 12.2734,0.39 9.6406,0.39 6.9922,0.39 4.9258,-0.31703 3.4375,-1.735 1.9453,-3.1608 1.2031,-5.1295 1.2031,-7.6412 c 0,-2.5195 0.74219,-4.4883 2.2344,-5.9062 1.4883,-1.4258 3.5547,-2.1406 6.2031,-2.1406 z"
     id="path2956" /></g><g
   id="use132"
   transform="matrix(1.3333333,0,0,1.3333333,456.40269,459.59693)"><path
     d="m 2.1875,-5.9688 v -9.3438 h 4.9219 v 1.5312 c 0,0.83594 -0.00781,1.875 -0.015625,3.125 -0.011719,1.25 -0.015625,2.0859 -0.015625,2.5 0,1.2422 0.03125,2.1328 0.09375,2.6719 0.070313,0.54297 0.17969,0.93359 0.32812,1.1719 0.20703,0.32422 0.47266,0.57422 0.79688,0.75 0.32031,0.16797 0.69141,0.25 1.1094,0.25 1.0195,0 1.8203,-0.39062 2.4062,-1.1719 0.58203,-0.78125 0.875,-1.8672 0.875,-3.2656 v -7.5625 h 4.8906 V -6e-4 H 12.6875 V -2.2194 C 11.94531,-1.32096 11.1641,-0.6608 10.3437,-0.235 9.51948,0.17906 8.6093,0.39 7.6093,0.39 5.8476,0.39 4.5038,-0.14906 3.5781,-1.235 2.64841,-2.317 2.1875,-3.8952 2.1875,-5.9694 Z"
     id="path2944" /></g><g
   id="use134"
   transform="matrix(1.3333333,0,0,1.3333333,482.98081,459.59693)"><path
     d="M 17.75,-9.3281 V 0 h -4.9219 v -7.1406 c 0,-1.3203 -0.03125,-2.2344 -0.09375,-2.7344 -0.0625,-0.5 -0.16797,-0.86719 -0.3125,-1.1094 -0.1875,-0.3125 -0.44922,-0.55469 -0.78125,-0.73438 -0.32422,-0.17578 -0.69531,-0.26562 -1.1094,-0.26562 -1.0234,0 -1.8242,0.39844 -2.4062,1.1875 -0.58594,0.78125 -0.875,1.8711 -0.875,3.2656 V -1e-4 H 2.3594 v -15.312 H 7.25 v 2.2344 c 0.73828,-0.88281 1.5195,-1.5391 2.3438,-1.9688 0.83203,-0.42578 1.75,-0.64062 2.75,-0.64062 1.7695,0 3.1133,0.54688 4.0312,1.6406 0.91406,1.0859 1.375,2.6562 1.375,4.7188 z"
     id="path3020" /></g><g
   id="use136"
   transform="matrix(1.3333333,0,0,1.3333333,522.55373,459.59693)"><path
     d="m 2.5781,-20.406 h 8.7344 c 2.5938,0 4.582,0.57812 5.9688,1.7344 1.3945,1.1484 2.0938,2.7891 2.0938,4.9219 0,2.1367 -0.69922,3.7812 -2.0938,4.9375 -1.3867,1.1562 -3.375,1.7344 -5.9688,1.7344 H 7.8281 V 3e-4 h -5.25 z m 5.25,3.8125 v 5.7031 H 10.75 c 1.0195,0 1.8047,-0.25 2.3594,-0.75 0.5625,-0.5 0.84375,-1.2031 0.84375,-2.1094 0,-0.91406 -0.28125,-1.6172 -0.84375,-2.1094 -0.55469,-0.48828 -1.3398,-0.73438 -2.3594,-0.73438 z"
     id="path2932" /></g><g
   id="use138"
   transform="matrix(1.3333333,0,0,1.3333333,549.9183,459.59693)"><path
     d="m 13.734,-11.141 c -0.4375,-0.19531 -0.87109,-0.34375 -1.2969,-0.4375 -0.41797,-0.10156 -0.83984,-0.15625 -1.2656,-0.15625 -1.2617,0 -2.2305,0.40625 -2.9062,1.2188 -0.67969,0.80469 -1.0156,1.9531 -1.0156,3.4531 v 7.0625 H 2.3591 v -15.312 h 4.8906 v 2.5156 c 0.625,-1 1.3438,-1.7266 2.1562,-2.1875 0.82031,-0.46875 1.8008,-0.70312 2.9375,-0.70312 0.16406,0 0.34375,0.01172 0.53125,0.03125 0.19531,0.01172 0.47656,0.03906 0.84375,0.07813 z"
     id="path3068" /></g><g
   id="use140"
   transform="matrix(1.3333333,0,0,1.3333333,568.32456,459.59693)"><path
     d="m 9.6406,-12.188 c -1.0859,0 -1.9141,0.39062 -2.4844,1.1719 -0.57422,0.78125 -0.85938,1.9062 -0.85938,3.375 0,1.4688 0.28516,2.5938 0.85938,3.375 0.57031,0.77344 1.3984,1.1562 2.4844,1.1562 1.0625,0 1.875,-0.38281 2.4375,-1.1562 0.57031,-0.78125 0.85938,-1.9062 0.85938,-3.375 0,-1.4688 -0.28906,-2.5938 -0.85938,-3.375 -0.5625,-0.78125 -1.375,-1.1719 -2.4375,-1.1719 z m 0,-3.5 c 2.6328,0 4.6914,0.71484 6.1719,2.1406 1.4766,1.418 2.2188,3.3867 2.2188,5.9062 0,2.5117 -0.74219,4.4805 -2.2188,5.9062 C 14.332,-0.317 12.2734,0.39 9.6406,0.39 6.9922,0.39 4.9258,-0.31703 3.4375,-1.735 1.9453,-3.1608 1.2031,-5.1295 1.2031,-7.6412 c 0,-2.5195 0.74219,-4.4883 2.2344,-5.9062 1.4883,-1.4258 3.5547,-2.1406 6.2031,-2.1406 z"
     id="path2960" /></g><g
   id="use142"
   transform="matrix(1.3333333,0,0,1.3333333,593.97559,459.59693)"><path
     d="M 2.3594,-15.312 H 7.25 v 15.031 c 0,2.0508 -0.49609,3.6172 -1.4844,4.7031 -0.98047,1.082 -2.4062,1.625 -4.2812,1.625 H -0.9375 V 2.8283 h 0.85938 c 0.92578,0 1.5625,-0.21094 1.9062,-0.625 0.35156,-0.41797 0.53125,-1.2461 0.53125,-2.4844 z m 0,-5.9688 H 7.25 v 4 H 2.3594 Z"
     id="path2936" /></g><g
   id="use144"
   transform="matrix(1.3333333,0,0,1.3333333,606.77247,459.59693)"><path
     d="m 17.641,-7.7031 v 1.4062 H 6.188 c 0.125,1.1484 0.53906,2.0078 1.25,2.5781 0.70703,0.57422 1.7031,0.85938 2.9844,0.85938 1.0312,0 2.082,-0.14844 3.1562,-0.45312 1.082,-0.3125 2.1914,-0.77344 3.3281,-1.3906 v 3.7656 c -1.1562,0.4375 -2.3125,0.76562 -3.4688,0.98438 -1.1562,0.22656 -2.3125,0.34375 -3.4688,0.34375 -2.7734,0 -4.9297,-0.70312 -6.4688,-2.1094 -1.5312,-1.4062 -2.2969,-3.3789 -2.2969,-5.9219 0,-2.5 0.75391,-4.4609 2.2656,-5.8906 1.5078,-1.4375 3.582,-2.1562 6.2188,-2.1562 2.4062,0 4.332,0.73047 5.7812,2.1875 1.4453,1.4492 2.1719,3.3828 2.1719,5.7969 z m -5.0312,-1.625 c 0,-0.92578 -0.27344,-1.6719 -0.8125,-2.2344 -0.54297,-0.57031 -1.25,-0.85938 -2.125,-0.85938 -0.94922,0 -1.7188,0.26562 -2.3125,0.79688 -0.5937,0.53126 -0.96484,1.2969 -1.1094,2.2969 z"
     id="path3056" /></g><g
   id="use146"
   transform="matrix(1.3333333,0,0,1.3333333,632.09539,459.59693)"><path
     d="m 14.719,-14.828 v 3.9844 c -0.65625,-0.45703 -1.3242,-0.79688 -2,-1.0156 -0.66797,-0.21875 -1.3594,-0.32812 -2.0781,-0.32812 -1.3672,0 -2.4336,0.40234 -3.2031,1.2031 -0.76172,0.79297 -1.1406,1.9062 -1.1406,3.3438 0,1.4297 0.37891,2.543 1.1406,3.3438 0.76953,0.79297 1.8359,1.1875 3.2031,1.1875 0.75781,0 1.4844,-0.10938 2.1719,-0.32812 0.6875,-0.22656 1.3203,-0.56641 1.9062,-1.0156 v 4 c -0.76172,0.28125 -1.5391,0.48828 -2.3281,0.625 -0.78125,0.14453 -1.5742,0.21875 -2.375,0.21875 -2.7617,0 -4.9219,-0.70703 -6.4844,-2.125 -1.5547,-1.4141 -2.3281,-3.3828 -2.3281,-5.9062 0,-2.5312 0.77344,-4.5039 2.3281,-5.9219 1.5625,-1.4141 3.7227,-2.125 6.4844,-2.125 0.80078,0 1.5938,0.07422 2.375,0.21875 0.78125,0.13672 1.5547,0.35156 2.3281,0.64062 z"
     id="path2928" /></g><g
   id="use148"
   transform="matrix(1.3333333,0,0,1.3333333,654.22039,459.59693)"><path
     d="m 7.7031,-19.656 v 4.3438 H 12.75 v 3.5 H 7.7031 v 6.5 c 0,0.71094 0.14062,1.1875 0.42188,1.4375 0.28126,0.25 0.83594,0.375 1.6719,0.375 h 2.5156 v 3.5 h -4.1875 c -1.9375,0 -3.3125,-0.39844 -4.125,-1.2031 -0.80469,-0.8125 -1.2031,-2.1797 -1.2031,-4.1094 v -6.5 h -2.4219 v -3.5 h 2.4219 v -4.3438 z"
     id="path3000" /></g></svg>
